<?xml version="1.0" standalone="no"?>
<!DOCTYPE svg PUBLIC "-//W3C//DTD SVG 1.1//EN" "http://www.w3.org/Graphics/SVG/1.1/DTD/svg11.dtd" >
<svg>
<metadata>
Created by FontForge 20090622 at Thu Dec 21 12:42:45 2017
 By deploy user
Copyright (c) 2012, Eduardo Tunni (http://www.tipo.net.ar), with Reserved Font Name 'Offside'
</metadata>
<defs>
<font id="Offside-Regular" horiz-adv-x="600" >
  <font-face 
    font-family="Offside"
    font-weight="400"
    font-stretch="normal"
    units-per-em="1000"
    panose-1="2 0 5 3 4 0 0 2 0 4"
    ascent="800"
    descent="-200"
    x-height="600"
    cap-height="745"
    bbox="-71 -265 1342 996"
    underline-thickness="50"
    underline-position="-50"
    unicode-range="U+0020-U+FB02"
  />
<missing-glyph horiz-adv-x="400" 
 />
    <glyph glyph-name="fi" unicode="fi" horiz-adv-x="685" 
d="M80 600h70v57q0 158 206 158h35q20 0 20 -35t-20 -35h-35q-126 0 -126 -78v-67h325q20 0 20 -35v-448q0 -32 15 -59.5t15 -28.5q0 -12 -19 -25.5t-32 -13.5q-21 0 -40 36.5t-19 80.5v423h-265v-633q0 -64 -18.5 -105.5t-40.5 -41.5q-13 0 -32 13.5t-19 25.5q0 3 8 15
q22 38 22 103v623h-70q-20 0 -20 35t20 35zM578 795v-87q0 -25 -43.5 -25t-43.5 25v87q0 25 43.5 25t43.5 -25z" />
    <glyph glyph-name="fl" unicode="fl" horiz-adv-x="685" 
d="M80 600h70v57q0 158 206 158h35q20 0 20 -35t-20 -35h-35q-126 0 -126 -78v-67h115q20 0 20 -35t-20 -35h-115v-633q0 -64 -18.5 -105.5t-40.5 -41.5q-13 0 -32 13.5t-19 25.5q0 3 8 15q22 38 22 103v623h-70q-20 0 -20 35t20 35zM575 777v-660q0 -32 15 -59.5t15 -28.5
q0 -12 -19 -25.5t-32 -13.5q-21 0 -40 36.5t-19 80.5v670q0 23 40 23t40 -23z" />
    <glyph glyph-name=".notdef" horiz-adv-x="400" 
 />
    <glyph glyph-name=".null" horiz-adv-x="0" 
 />
    <glyph glyph-name="nonmarkingreturn" horiz-adv-x="333" 
 />
    <glyph glyph-name="space" unicode=" " horiz-adv-x="370" 
 />
    <glyph glyph-name="exclam" unicode="!" horiz-adv-x="301" 
d="M150 247q-33 0 -33 22l-17 518q0 28 50 28t50 -29l-17 -517q0 -22 -33 -22zM193 94v-85q0 -24 -42.5 -24t-42.5 24v85q0 24 42.5 24t42.5 -24z" />
    <glyph glyph-name="quotedbl" unicode="&#x22;" horiz-adv-x="354" 
d="M92 525q-34 0 -34 18l-8 215q0 23 42 23t42 -24l-8 -214q0 -18 -34 -18zM262 525q-34 0 -34 18l-8 215q0 23 42 23t42 -24l-8 -214q0 -18 -34 -18z" />
    <glyph glyph-name="numbersign" unicode="#" 
d="M34 516h136l44 216q7 23 39.5 23t32.5 -17q0 -6 -3 -17l-42 -205h179l44 216q5 23 38.5 23t33.5 -17q0 -6 -3 -17l-42 -205h120q20 0 20 -35t-20 -35h-135l-30 -150h121q20 0 20 -35t-20 -35h-136l-44 -218q-7 -23 -40 -23t-33 17q0 2 4 17l42 207h-179l-44 -218
q-7 -23 -40 -23t-33 17q0 2 4 17l42 207h-121q-20 0 -20 35t20 35h136l30 150h-121q-20 0 -20 35t20 35zM226 446l-30 -150h179l30 150h-179z" />
    <glyph glyph-name="dollar" unicode="$" 
d="M339 822v-82h141q20 0 20 -35t-20 -35h-141v-267q77 -17 108 -30.5t44 -28.5q32 -35 32 -96v-82q0 -86 -36 -126t-122 -40h-26v-82q0 -23 -36 -23t-36 23v82h-164q-20 0 -20 35t20 35h164v277l-29 7q-61 14 -92 31q-66 35 -66 145v44q0 86 36 126t122 40h29v82
q0 23 36 23t36 -23zM443 166v90q0 31 -24 46t-80 29v-261h26q43 0 60.5 22.5t17.5 73.5zM160 532q0 -55 16.5 -75.5t61.5 -30.5l29 -7v251h-29q-43 0 -60.5 -22.5t-17.5 -73.5v-42z" />
    <glyph glyph-name="percent" unicode="%" horiz-adv-x="1011" 
d="M942 386v-288q0 -56 -42.5 -82t-112.5 -26q-153 0 -153 108v288q0 56 43.5 81.5t113.5 25.5q151 0 151 -107zM699 393v-302q0 -42 89.5 -42t89.5 42v302q0 42 -89.5 42t-89.5 -42zM378 642v-288q0 -56 -42.5 -82t-112.5 -26q-153 0 -153 108v288q0 56 43.5 81.5
t113.5 25.5q151 0 151 -107zM135 649v-302q0 -42 89.5 -42t89.5 42v302q0 42 -89.5 42t-89.5 -42zM459 8q-5 -23 -32 -23t-27 17l152 730q5 23 32 23t27 -17z" />
    <glyph glyph-name="ampersand" unicode="&#x26;" horiz-adv-x="703" 
d="M171 717.5q61 37.5 155.5 37.5t149.5 -38t55 -120v-15q0 -23 -40 -23t-40 23v25q0 78 -130.5 78t-130.5 -78v-103q0 -88 108 -88h385q20 0 20 -35t-20 -35h-140v-429q0 -32 15 -59.5t15 -28.5q0 -12 -19 -25.5t-32 -13.5q-21 0 -40 36.5t-19 80.5v116q-42 -38 -141.5 -38
t-160.5 37.5t-61 120.5v115q0 103 88 124q-78 24 -78 122v93q0 83 61 120.5zM180 258v-125q0 -78 141.5 -78t141.5 78v213h-175q-108 0 -108 -88z" />
    <glyph glyph-name="quotesingle" unicode="'" horiz-adv-x="184" 
d="M92 525q-34 0 -34 18l-8 215q0 23 42 23t42 -24l-8 -214q0 -18 -34 -18z" />
    <glyph glyph-name="parenleft" unicode="(" horiz-adv-x="360" 
d="M235 600q-35 -112 -35 -228t34.5 -228.5t93.5 -203.5q2 -4 2 -7q0 -14 -29 -27q-18 -6 -28.5 -6t-17.5 10q-46 63 -90.5 186t-44.5 274t44.5 274t90.5 186q7 10 17.5 10t28.5 -6q29 -13 29 -27q0 -3 -2 -7q-58 -88 -93 -200z" />
    <glyph glyph-name="parenright" unicode=")" horiz-adv-x="360" 
d="M125.5 143.5q34.5 112.5 34.5 228.5t-35 228t-93 200q-2 4 -2 7q0 14 29 27q18 6 28.5 6t17.5 -10q46 -63 90.5 -186t44.5 -274t-44.5 -274t-90.5 -186q-7 -10 -17.5 -10t-28.5 6q-29 13 -29 27q0 3 2 7q59 91 93.5 203.5z" />
    <glyph glyph-name="asterisk" unicode="*" horiz-adv-x="618" 
d="M257 638q8 -6 8 -17t-9 -25t-17 -14t-19 5l-109 51q-11 6 -11 21t14.5 34.5t24.5 19.5t15 -4zM309 802q42 0 42 -24q0 -1 -11 -128q-2 -20 -31 -20t-31 20l-11 128q0 24 42 24zM464 709q4 4 14.5 4t25 -19.5t14.5 -34.5t-11 -21l-109 -51q-11 -5 -19 -5t-17 14t-9 25
t8 17zM154 434q-5 -3 -15 -3t-24.5 19.5t-14.5 34.5t11 21l109 51q11 5 19 5t17 -14t9 -25.5t-8 -16.5zM309 342q-42 0 -42 24q0 1 11 128q2 20 31 20t31 -20l11 -128q0 -24 -42 -24zM361 506q-8 5 -8 16.5t9 25.5t17 14t19 -5l109 -51q11 -6 11 -21t-14.5 -34.5t-25 -19.5
t-14.5 3z" />
    <glyph glyph-name="plus" unicode="+" 
d="M265 166v170h-170q-20 0 -20 35t20 35h170v170q0 20 35 20t35 -20v-170h170q20 0 20 -35t-20 -35h-170v-170q0 -20 -35 -20t-35 20z" />
    <glyph glyph-name="comma" unicode="," horiz-adv-x="201" 
d="M143 94v-111q0 -32 -18 -83l-9 -24q-3 -9 -15.5 -9t-27 8t-14.5 15q0 4 2 9l15 40q6 18 6 27t-12 26.5t-12 29.5v72q0 24 42.5 24t42.5 -24z" />
    <glyph glyph-name="hyphen" unicode="-" horiz-adv-x="465" 
d="M70 359h325q20 0 20 -35t-20 -35h-325q-20 0 -20 35t20 35z" />
    <glyph glyph-name="period" unicode="." horiz-adv-x="201" 
d="M143 94v-85q0 -24 -42.5 -24t-42.5 24v85q0 24 42.5 24t42.5 -24z" />
    <glyph glyph-name="slash" unicode="/" horiz-adv-x="377" 
d="M103 -82q-7 -23 -40 -23t-33 17q0 2 4 17l240 893q7 23 40 23t33 -17q0 -2 -4 -17z" />
    <glyph glyph-name="zero" unicode="0" 
d="M533 597v-454q0 -83 -64.5 -120.5t-170.5 -37.5q-228 0 -228 158v454q0 83 64.5 120.5t170.5 37.5q228 0 228 -158zM453 133v474q0 39 -40 60l-161 -610q14 -2 46 -2q155 0 155 78zM150 607v-474q0 -40 38 -59l160 609q-26 2 -43 2q-155 0 -155 -78z" />
    <glyph glyph-name="one" unicode="1" 
d="M490 0h-340q-20 0 -20 35t20 35h130v600h-130q-20 0 -20 35t20 35h150q38 0 49 -15.5t11 -56.5v-598h130q20 0 20 -35t-20 -35z" />
    <glyph glyph-name="two" unicode="2" 
d="M523 574v-17q0 -58 -64 -136l-290 -351h334q20 0 20 -35t-20 -35h-423q-20 0 -20 35q0 21 9 32l318 385q30 37 43 61t13 49v12q0 51 -17.5 73.5t-60.5 22.5h-242q-20 0 -20 35t20 35h242q86 0 122 -40t36 -126z" />
    <glyph glyph-name="three" unicode="3" 
d="M527 256v-113q0 -82 -65.5 -120t-165 -38t-163 38t-63.5 120v44q0 23 40 23t40 -23v-54q0 -41 41.5 -59.5t105 -18.5t107 19t43.5 59v123q0 46 -15.5 62t-70.5 16h-172q-20 0 -20 35t20 35h141l47 48q56 57 56 110v12q0 51 -17.5 73.5t-60.5 22.5h-232q-20 0 -20 35
t20 35h232q86 0 122 -40t36 -126v-17q0 -29 -17.5 -67.5t-46.5 -68.5l-22 -22q53 -10 76.5 -43t23.5 -100z" />
    <glyph glyph-name="four" unicode="4" 
d="M222 740q4 10 16 10t30 -6q29 -13 29 -27q0 -3 -2 -7l-114 -252q-56 -123 -56 -165v-5q0 -31 16.5 -44.5t69.5 -13.5h179v278q0 23 40 23t40 -23v-278h53q20 0 20 -35t-20 -35h-53v-142q0 -23 -40 -23t-40 23v142h-179q-89 0 -127.5 30t-38.5 96v13q0 46 64 190z" />
    <glyph glyph-name="five" unicode="5" 
d="M100 447v117q0 93 36 134.5t122 41.5h232q20 0 20 -35t-20 -35h-232q-43 0 -60.5 -24t-17.5 -82v-122l161 -35q116 -24 143 -45q39 -30 46 -57.5t7 -56.5v-105q0 -82 -65.5 -120t-165 -38t-163 38t-63.5 120v44q0 23 40 23t40 -23v-54q0 -41 41.5 -59.5t105 -18.5t107 19
t43.5 59v123q0 33 -26.5 48.5t-89.5 29.5l-193 42q-28 6 -38 20t-10 51z" />
    <glyph glyph-name="six" unicode="6" 
d="M80 143v421q0 93 36 134.5t122 41.5h252q20 0 20 -35t-20 -35h-252q-43 0 -60.5 -24t-17.5 -82v-121l181 -27q51 -8 82 -16.5t59 -25.5q55 -31 55 -116v-115q0 -82 -65.5 -120t-165 -38t-163 38t-63.5 120zM160 133q0 -41 41.5 -59.5t105 -18.5t107 19t43.5 59v133
q0 34 -28 51.5t-88 26.5l-181 27v-238z" />
    <glyph glyph-name="seven" unicode="7" 
d="M255 0q-4 -10 -16 -10t-30 6q-29 13 -29 27q0 3 2 7l185 412q56 123 56 165v5q0 31 -16.5 44.5t-69.5 13.5h-237q-20 0 -20 35t20 35h237q89 0 127.5 -30t38.5 -96v-13q0 -46 -64 -190z" />
    <glyph glyph-name="eight" unicode="8" 
d="M536 173v-30q0 -82 -67 -120t-172 -38t-169.5 38t-64.5 120v30q0 60 64 126l84 85l-58 38q-45 30 -65 70.5t-20 74.5v30q0 56 33 92.5t83.5 51t118.5 14.5q104 0 166 -37.5t62 -120.5v-30q0 -60 -64 -126l-80 -82l64 -41q45 -30 65 -70.5t20 -74.5zM143 168v-35
q0 -41 43.5 -59.5t111 -18.5t113 19t45.5 59v35q0 58 -56 95l-127 81l-74 -76q-32 -33 -44 -53.5t-12 -46.5zM451 572v35q0 78 -149 78q-67 0 -110.5 -18.5t-43.5 -59.5v-35q0 -58 56 -95l120 -78l71 73q32 33 44 53.5t12 46.5z" />
    <glyph glyph-name="nine" unicode="9" 
d="M520 597v-454q0 -82 -65.5 -120t-165 -38t-163 38t-63.5 120v44q0 23 40 23t40 -23v-54q0 -41 41.5 -59.5t105 -18.5t107 19t43.5 59v164l-181 27q-51 8 -82 16.5t-59 25.5q-55 31 -55 116v115q0 82 65.5 120t165 38t163 -38t63.5 -120zM143 607v-133q0 -34 28 -51.5
t88 -26.5l181 -27v238q0 41 -41.5 59.5t-105 18.5t-107 -19t-43.5 -59z" />
    <glyph glyph-name="colon" unicode=":" horiz-adv-x="201" 
d="M143 94v-85q0 -24 -42.5 -24t-42.5 24v85q0 24 42.5 24t42.5 -24zM143 494v-85q0 -24 -42.5 -24t-42.5 24v85q0 24 42.5 24t42.5 -24z" />
    <glyph glyph-name="semicolon" unicode=";" horiz-adv-x="201" 
d="M143 94v-111q0 -32 -18 -83l-9 -24q-3 -9 -15.5 -9t-27 8t-14.5 15q0 4 2 9l15 40q6 18 6 27t-12 26.5t-12 29.5v72q0 24 42.5 24t42.5 -24zM143 494v-85q0 -24 -42.5 -24t-42.5 24v85q0 24 42.5 24t42.5 -24z" />
    <glyph glyph-name="less" unicode="&#x3c;" 
d="M80 370q0 36 8 58.5t28.5 37.5t40.5 22.5t60 18.5l283 77q20 0 20 -38t-23 -42l-269 -75q-52 -14 -65 -24t-13 -35t13 -35t65 -24l269 -75q23 -4 23 -42t-20 -38l-283 77q-40 11 -60 18.5t-40.5 22.5t-28.5 37.5t-8 58.5z" />
    <glyph glyph-name="equal" unicode="=" 
d="M95 296h410q20 0 20 -35t-20 -35h-410q-20 0 -20 35t20 35zM95 516h410q20 0 20 -35t-20 -35h-410q-20 0 -20 35t20 35z" />
    <glyph glyph-name="greater" unicode="&#x3e;" 
d="M520 370q0 -36 -8 -58.5t-28.5 -37.5t-40.5 -22.5t-60 -18.5l-283 -77q-20 0 -20 38t23 42l269 75q52 14 65 24t13 35t-13 35t-65 24l-269 75q-23 4 -23 42t20 38l283 -77q40 -11 60 -18.5t40.5 -22.5t28.5 -37.5t8 -58.5z" />
    <glyph glyph-name="question" unicode="?" horiz-adv-x="467" 
d="M259 94v-85q0 -24 -42.5 -24t-42.5 24v85q0 24 42.5 24t42.5 -24zM216 247q-33 0 -33 22l-6 179l67 18q50 14 71.5 29.5t21.5 48.5v123q0 40 -34.5 59t-85.5 19t-84 -18.5t-33 -59.5v-54q0 -23 -40 -23t-40 23v44q0 81 57.5 119.5t139.5 38.5q114 0 169 -66
q31 -37 31 -92v-105q0 -60 -31 -98q-12 -14 -38 -26.5t-43 -17.5l-53 -15l-3 -126q0 -22 -33 -22z" />
    <glyph glyph-name="at" unicode="@" horiz-adv-x="1081" 
d="M911 69h-127q-85 0 -115.5 39t-33.5 159l-1 28l-137 -14q-43 -4 -55.5 -18t-12.5 -50v-7q0 -38 12.5 -53.5t54.5 -15.5h98q22 0 22 -34t-22 -34h-98q-78 0 -111 30.5t-33 106.5v7q0 74 29.5 101t108.5 35l143 14l-3 109q-1 60 -109 60h-114q-21 0 -21 34t21 34h114
q182 0 186 -136l5 -188q2 -91 15 -115t57 -24h107v392q0 196 -342 196q-161 0 -260 -47t-99 -149v-399q0 -196 342 -196h417q22 0 22 -37.5t-22 -37.5h-417q-127 0 -218 25t-147.5 87t-56.5 159v399q0 96 61 158.5t156 87.5t222 25t218 -25t147.5 -87t56.5 -159v-391
q0 -40 -11 -54.5t-49 -14.5z" />
    <glyph glyph-name="A" unicode="A" horiz-adv-x="683" 
d="M573 597v-579q0 -23 -40 -23t-40 23v271h-303v-271q0 -23 -40 -23t-40 23v579q0 56 33 92.5t84 51t120 14.5q226 0 226 -158zM190 607v-248h303v248q0 78 -151.5 78t-151.5 -78z" />
    <glyph glyph-name="B" unicode="B" horiz-adv-x="628" 
d="M325 -5h-67q-86 0 -122 41.5t-36 134.5v426q0 83 60 120.5t160 37.5t159 -37.5t59 -120.5v-93q0 -98 -78 -122q88 -21 88 -124v-105q0 -83 -61 -120.5t-162 -37.5zM360 346h-125q-20 0 -20 35t20 35h115q108 0 108 88v103q0 78 -139 78t-139 -78v-436q0 -58 17.5 -82
t60.5 -24h65q145 0 145 78v115q0 88 -108 88z" />
    <glyph glyph-name="C" unicode="C" horiz-adv-x="633" 
d="M180 607v-474q0 -78 146.5 -78t146.5 78v72q0 23 40 23t40 -23v-62q0 -158 -223 -158q-104 0 -167 37.5t-63 120.5v454q0 83 63 120.5t167 37.5q223 0 223 -158v-62q0 -23 -40 -23t-40 23v72q0 78 -146.5 78t-146.5 -78z" />
    <glyph glyph-name="D" unicode="D" horiz-adv-x="683" 
d="M190 70h188q64 0 89.5 17t25.5 61v444q0 44 -25.5 61t-89.5 17h-188v-600zM110 75v590q0 44 10.5 59.5t49.5 15.5h208q100 0 147.5 -36t47.5 -122v-424q0 -86 -47.5 -122t-147.5 -36h-208q-39 0 -49.5 15.5t-10.5 59.5z" />
    <glyph glyph-name="E" unicode="E" horiz-adv-x="603" 
d="M180 258v-125q0 -78 141.5 -78t141.5 78v72q0 23 40 23t40 -23v-62q0 -83 -60 -120.5t-160.5 -37.5t-161.5 37.5t-61 120.5v115q0 103 88 124q-78 24 -78 122v93q0 83 61 120.5t155.5 37.5t149.5 -38t55 -120v-15q0 -23 -40 -23t-40 23v25q0 78 -130.5 78t-130.5 -78
v-103q0 -88 108 -88h75q20 0 20 -35t-20 -35h-85q-108 0 -108 -88z" />
    <glyph glyph-name="F" unicode="F" horiz-adv-x="490" 
d="M420 346h-230v-328q0 -23 -40 -23t-40 23v546q0 93 36 134.5t122 41.5h192q20 0 20 -35t-20 -35h-192q-43 0 -60.5 -24t-17.5 -82v-148h230q20 0 20 -35t-20 -35z" />
    <glyph glyph-name="G" unicode="G" horiz-adv-x="643" 
d="M483 133v98q0 48 -16.5 68t-69.5 20h-77q-20 0 -20 35t20 35h77q88 0 127 -36t39 -122v-88q0 -83 -64.5 -120.5t-170.5 -37.5q-228 0 -228 158v454q0 83 62.5 120.5t164.5 37.5q221 0 221 -158v-55q0 -23 -40 -23t-40 23v65q0 78 -144 78t-144 -78v-474q0 -78 151.5 -78
t151.5 78z" />
    <glyph glyph-name="H" unicode="H" horiz-adv-x="683" 
d="M573 722v-704q0 -23 -40 -23t-40 23v311h-303v-311q0 -23 -40 -23t-40 23v704q0 23 40 23t40 -23v-323h303v323q0 23 40 23t40 -23z" />
    <glyph glyph-name="I" unicode="I" horiz-adv-x="320" 
d="M200 722v-704q0 -23 -40 -23t-40 23v704q0 23 40 23t40 -23z" />
    <glyph glyph-name="J" unicode="J" horiz-adv-x="503" 
d="M313 133v589q0 23 40 23t40 -23v-579q0 -82 -55 -120t-137 -38t-136.5 38t-54.5 120v122q0 23 40 23t40 -23v-132q0 -78 111.5 -78t111.5 78z" />
    <glyph glyph-name="K" unicode="K" horiz-adv-x="614" 
d="M553 13q0 -18 -35 -18t-42 23l-71 258q-9 35 -25 44.5t-70 9.5h-66q-20 0 -20 35t20 35h25q69 0 87.5 9t27.5 45l72 268q7 23 42 23t35 -18l-72 -273q-13 -48 -41 -69q37 -18 54 -81q79 -288 79 -291zM190 722v-704q0 -23 -40 -23t-40 23v704q0 23 40 23t40 -23z" />
    <glyph glyph-name="L" unicode="L" horiz-adv-x="460" 
d="M268 70h162q20 0 20 -35t-20 -35h-162q-86 0 -122 41.5t-36 134.5v546q0 23 40 23t40 -23v-546q0 -58 17.5 -82t60.5 -24z" />
    <glyph glyph-name="M" unicode="M" horiz-adv-x="854" 
d="M664 18v652h-10q-32 0 -40 -9t-17 -45l-131 -519q-5 -23 -39 -23t-39 23l-131 519q-9 36 -17 45t-40 9h-10v-652q0 -23 -40 -23t-40 23v647q0 44 10.5 59.5t49.5 15.5h22q70 0 94.5 -16t39.5 -80l101 -415l101 415q15 64 39.5 80t94.5 16h22q39 0 49.5 -15.5t10.5 -59.5
v-647q0 -23 -40 -23t-40 23z" />
    <glyph glyph-name="N" unicode="N" horiz-adv-x="713" 
d="M200 670h-10v-652q0 -23 -40 -23t-40 23v647q0 44 10.5 59.5t49.5 15.5h22q70 0 94 -16t40 -80l130 -525q9 -36 17 -45t40 -9h10v652q0 23 40 23t40 -23v-647q0 -44 -10.5 -59.5t-49.5 -15.5h-22q-70 0 -94 16t-40 80l-130 525q-9 36 -17 45t-40 9z" />
    <glyph glyph-name="O" unicode="O" horiz-adv-x="663" 
d="M563 597v-454q0 -83 -64.5 -120.5t-170.5 -37.5q-228 0 -228 158v454q0 83 64.5 120.5t170.5 37.5q228 0 228 -158zM180 607v-474q0 -78 151.5 -78t151.5 78v474q0 78 -151.5 78t-151.5 -78z" />
    <glyph glyph-name="P" unicode="P" horiz-adv-x="613" 
d="M240 350h87q136 0 136 78v179q0 78 -136.5 78t-136.5 -78v-589q0 -23 -40 -23t-40 23v579q0 83 59 120.5t157 37.5t157.5 -37.5t59.5 -120.5v-159q0 -83 -59 -120.5t-157 -37.5h-87q-20 0 -20 35t20 35z" />
    <glyph glyph-name="Q" unicode="Q" horiz-adv-x="663" 
d="M328 55q20 0 20 -35t-20 -35q-228 0 -228 158v454q0 83 64.5 120.5t170.5 37.5q228 0 228 -158v-454q0 -91 -84 -131q50 -110 50 -112q0 -17 -34 -17t-44 22q-120 267 -120 269q0 17 34 17t44 -22l40 -91q34 19 34 55v474q0 78 -151.5 78t-151.5 -78v-474q0 -78 148 -78z
" />
    <glyph glyph-name="R" unicode="R" horiz-adv-x="644" 
d="M240 370h87q136 0 136 78v159q0 78 -136.5 78t-136.5 -78v-589q0 -23 -40 -23t-40 23v579q0 83 59 120.5t157 37.5t157.5 -37.5t59.5 -120.5v-139q0 -93 -87 -116q23 -21 36 -68q71 -255 71 -261q0 -18 -35 -18t-42 23l-63 228q-9 35 -25 44.5t-70 9.5h-88q-20 0 -20 35
t20 35z" />
    <glyph glyph-name="S" unicode="S" horiz-adv-x="617" 
d="M457 133v113q0 33 -26 48t-90 30l-89 20q-61 14 -92 31q-66 35 -66 145v77q0 83 59.5 120.5t157.5 37.5t157 -37.5t59 -120.5v-44q0 -23 -40 -23t-40 23v54q0 78 -136.5 78t-136.5 -78v-85q0 -55 16.5 -75.5t61.5 -30.5l89 -20q96 -21 109.5 -28.5t31.5 -16.5t24.5 -18.5
l15.5 -23.5q15 -23 15 -71v-95q0 -82 -65.5 -120t-165 -38t-163 38t-63.5 120v44q0 23 40 23t40 -23v-54q0 -41 41.5 -59.5t105 -18.5t107 19t43.5 59z" />
    <glyph glyph-name="T" unicode="T" horiz-adv-x="500" 
d="M40 740h420q20 0 20 -35t-20 -35h-170v-652q0 -23 -40 -23t-40 23v652h-170q-20 0 -20 35t20 35z" />
    <glyph glyph-name="U" unicode="U" horiz-adv-x="683" 
d="M190 133q0 -78 151.5 -78t151.5 78v589q0 23 40 23t40 -23v-579q0 -83 -64.5 -120.5t-170.5 -37.5q-228 0 -228 158v579q0 23 39.5 23t39.5 -23z" />
    <glyph glyph-name="V" unicode="V" horiz-adv-x="636" 
d="M318 -15q-79 0 -111 31.5t-46 105.5l-108 591q-2 10 -2 14q0 18 38 18t42 -23l108 -589q7 -43 22.5 -60.5t56.5 -17.5t56.5 17.5t22.5 60.5l108 589q4 23 42 23t38 -18q0 -4 -2 -14l-108 -591q-14 -74 -46 -105.5t-111 -31.5z" />
    <glyph glyph-name="W" unicode="W" horiz-adv-x="984" 
d="M617 73.5q18 -18.5 59.5 -18.5t57.5 18t22 60l78 589q3 23 41.5 23t38.5 -20l-80 -603q-9 -73 -43 -105t-114.5 -32t-115.5 32.5t-41 104.5l-23 246h-10l-23 -246q-7 -72 -41.5 -104.5t-115 -32.5t-114.5 32t-43 105l-80 605q0 18 38.5 18t41.5 -23l78 -589
q6 -42 21.5 -60t57.5 -18t59.5 18.5t23.5 59.5l62 498q3 23 40 23t40 -23l62 -498q5 -41 23 -59.5z" />
    <glyph glyph-name="X" unicode="X" horiz-adv-x="610" 
d="M549 13q0 -18 -34.5 -18t-41.5 23l-75 249q-12 41 -32 59.5t-61 18.5t-61 -18.5t-32 -59.5l-75 -249q-7 -23 -41.5 -23t-34.5 18q0 1 77 265q13 43 28 66.5t41 35.5q-25 11 -40 35t-29 67q-77 241 -77 245q0 18 34.5 18t41.5 -23l75 -229q13 -41 32.5 -59.5t60.5 -18.5
t60.5 18.5t32.5 59.5l75 229q7 23 41.5 23t34.5 -18q0 -4 -77 -245q-14 -43 -29 -67t-40 -35q26 -12 41 -35.5t28 -66.5q77 -264 77 -265z" />
    <glyph glyph-name="Y" unicode="Y" horiz-adv-x="580" 
d="M330 18q0 -23 -40 -23t-40 23v229q-51 8 -76 40t-41 95l-78 308q-9 32 -9 37q0 18 37.5 18t42.5 -23l85 -329q11 -42 26.5 -60t52.5 -18t52.5 18t26.5 60l85 329q5 23 42.5 23t37.5 -18q0 -5 -9 -37l-78 -308q-16 -63 -41 -95t-76 -40v-229z" />
    <glyph glyph-name="Z" unicode="Z" horiz-adv-x="595" 
d="M140 90v-20h376q20 0 20 -35t-20 -35h-436q-20 0 -20 35v57q0 36 10.5 55.5t14 25t15 19l15.5 18.5q20 25 41 46l255 287q25 29 34.5 46t9.5 41v40h-336q-20 0 -20 35t20 35h396q20 0 20 -35v-77q0 -36 -10.5 -55.5t-14 -25t-15 -19l-15.5 -18.5q-20 -25 -41 -46
l-255 -287q-25 -29 -34.5 -46t-9.5 -41z" />
    <glyph glyph-name="bracketleft" unicode="[" horiz-adv-x="360" 
d="M200 -30h110q20 0 20 -35t-20 -35h-130q-39 0 -49.5 15.5t-10.5 59.5v790q0 44 10.5 59.5t49.5 15.5h130q20 0 20 -35t-20 -35h-110v-800z" />
    <glyph glyph-name="backslash" unicode="\" horiz-adv-x="377" 
d="M30 828q0 17 33 17t40 -23l240 -893q4 -15 4 -17q0 -17 -33 -17t-40 23l-240 893q-4 15 -4 17z" />
    <glyph glyph-name="bracketright" unicode="]" horiz-adv-x="360" 
d="M50 -30h110v800h-110q-20 0 -20 35t20 35h130q39 0 49.5 -15.5t10.5 -59.5v-790q0 -44 -10.5 -59.5t-49.5 -15.5h-130q-20 0 -20 35t20 35z" />
    <glyph glyph-name="asciicircum" unicode="^" 
d="M300 740q36 0 58.5 -8t37.5 -28.5t22.5 -40.5t18.5 -60l49 -180q0 -20 -36.5 -20t-43.5 23l-47 166q-14 52 -24 65t-35 13t-35 -13t-24 -65l-47 -166q-7 -23 -43.5 -23t-36.5 20l49 180q11 40 18.5 60t22.5 40.5t37.5 28.5t58.5 8z" />
    <glyph glyph-name="underscore" unicode="_" horiz-adv-x="565" 
d="M70 0h425q20 0 20 -35t-20 -35h-425q-20 0 -20 35t20 35z" />
    <glyph glyph-name="grave" unicode="`" horiz-adv-x="305" 
d="M253 667l-192 91q-11 6 -11 22.5t16 41t27 24.5t16 -4l169 -116q7 -6 7 -15.5t-11.5 -26.5t-20.5 -17z" />
    <glyph glyph-name="a" unicode="a" horiz-adv-x="603" 
d="M363 0h-117q-88 0 -127 36t-39 122v8q0 85 35 117t125 41l173 17v111q0 78 -136 78h-137q-20 0 -20 35t20 35h137q98 0 157 -37.5t59 -120.5v-295q0 -65 23 -103q7 -12 7 -15q0 -12 -19 -25.5t-32 -13.5q-22 0 -40.5 41.5t-18.5 105.5v134l-167 -17q-54 -6 -70 -24
t-16 -64v-8q0 -48 16.5 -68t69.5 -20h117q20 0 20 -35t-20 -35z" />
    <glyph glyph-name="b" unicode="b" horiz-adv-x="643" 
d="M327 530h-87q-20 0 -20 35t20 35h87q98 0 157 -37.5t59 -120.5v-299q0 -83 -59.5 -120.5t-157.5 -37.5t-157 37.5t-59 120.5v634q0 23 40 23t40 -23v-644q0 -78 136.5 -78t136.5 78v319q0 78 -136 78z" />
    <glyph glyph-name="c" unicode="c" horiz-adv-x="596" 
d="M180 467v-334q0 -78 128 -78t128 78v42q0 23 40 23t40 -23v-32q0 -83 -56.5 -120.5t-151 -37.5t-151.5 37.5t-57 120.5v314q0 83 57 120.5t151.5 37.5t151 -37.5t56.5 -120.5v-32q0 -23 -40 -23t-40 23v42q0 78 -128 78t-128 -78z" />
    <glyph glyph-name="d" unicode="d" horiz-adv-x="643" 
d="M533 777v-634q0 -83 -59 -120.5t-157 -37.5t-157.5 37.5t-59.5 120.5v299q0 83 59 120.5t157 37.5h87q20 0 20 -35t-20 -35h-87q-136 0 -136 -78v-319q0 -78 136.5 -78t136.5 78v644q0 23 40 23t40 -23z" />
    <glyph glyph-name="e" unicode="e" horiz-adv-x="638" 
d="M538 459v-30q0 -85 -35 -117t-128 -41l-195 -19v-119q0 -78 130 -78q148 0 148 68v38q0 23 40 23t40 -23v-28q0 -148 -220 -148q-97 0 -157.5 38t-60.5 120v314q0 83 64 120.5t167 37.5t155 -36t52 -120zM180 467v-145l188 19q57 6 73.5 24t16.5 64v38q0 78 -139 78
t-139 -78z" />
    <glyph glyph-name="f" unicode="f" horiz-adv-x="385" 
d="M80 600h70v57q0 158 206 158h35q20 0 20 -35t-20 -35h-35q-126 0 -126 -78v-67h115q20 0 20 -35t-20 -35h-115v-633q0 -64 -18.5 -105.5t-40.5 -41.5q-13 0 -32 13.5t-19 25.5q0 3 8 15q22 38 22 103v623h-70q-20 0 -20 35t20 35z" />
    <glyph glyph-name="g" unicode="g" horiz-adv-x="643" 
d="M533 442v-322q0 -23 -40 -23t-40 23v332q0 74 -125 78h-11q-137 0 -137 -78v-276q0 -58 17.5 -82t60.5 -24h79q95 0 145.5 -37t50.5 -121v-4q0 -84 -50.5 -121t-145.5 -37h-227q-20 0 -20 35t20 35h227q59 0 87.5 18t28.5 60v24q0 42 -28.5 60t-87.5 18h-79
q-86 0 -122 41.5t-36 134.5v266q0 83 59.5 120.5t157.5 37.5h140q65 0 103 22q12 8 15 8q12 0 25.5 -19t13.5 -32q0 -18 -29.5 -31t-78.5 -17q27 -37 27 -89z" />
    <glyph glyph-name="h" unicode="h" horiz-adv-x="663" 
d="M553 457v-439q0 -23 -40 -23t-40 23v449q0 78 -136.5 78t-136.5 -78v-449q0 -23 -40 -23t-40 23v759q0 23 40 23t40 -23v-203q55 41 144.5 41t149 -37.5t59.5 -120.5z" />
    <glyph glyph-name="i" unicode="i" horiz-adv-x="300" 
d="M190 582v-465q0 -32 15 -59.5t15 -28.5q0 -12 -19 -25.5t-32 -13.5q-21 0 -40 36.5t-19 80.5v475q0 23 40 23t40 -23zM193 795v-87q0 -25 -43.5 -25t-43.5 25v87q0 25 43.5 25t43.5 -25z" />
    <glyph glyph-name="j" unicode="j" horiz-adv-x="300" 
d="M192 795v-87q0 -25 -43.5 -25t-43.5 25v87q0 25 43.5 25t43.5 -25zM190 582v-674q0 -158 -206 -158h-35q-20 0 -20 35t20 35h35q126 0 126 78v684q0 23 40 23t40 -23z" />
    <glyph glyph-name="k" unicode="k" horiz-adv-x="602" 
d="M190 777v-759q0 -23 -40 -23t-40 23v759q0 23 40 23t40 -23zM538 13q0 -18 -35 -18t-42 23l-59 203q-10 35 -25.5 44.5t-69.5 9.5h-63q-20 0 -20 35t20 35h38q42 1 55 10.5t25 43.5l67 183q8 23 42.5 23t34.5 -18q0 -1 -10 -31l-65 -185q-9 -25 -25 -38q46 -17 65 -84
l60 -209q7 -26 7 -27z" />
    <glyph glyph-name="l" unicode="l" horiz-adv-x="300" 
d="M190 777v-660q0 -32 15 -59.5t15 -28.5q0 -12 -19 -25.5t-32 -13.5q-21 0 -40 36.5t-19 80.5v670q0 23 40 23t40 -23z" />
    <glyph glyph-name="m" unicode="m" horiz-adv-x="966" 
d="M110 18v439q0 82 57.5 120t159.5 38t156 -53q53 53 155 53q218 0 218 -158v-439q0 -23 -40 -23t-40 23v449q0 78 -126.5 78t-126.5 -80v-447q0 -23 -40 -23t-40 23v449q0 78 -126.5 78t-126.5 -78v-449q0 -23 -40 -23t-40 23z" />
    <glyph glyph-name="n" unicode="n" horiz-adv-x="653" 
d="M543 457v-439q0 -23 -40 -23t-40 23v449q0 78 -136.5 78t-136.5 -78v-449q0 -23 -40 -23t-40 23v439q0 83 59 120.5t157 37.5t157.5 -37.5t59.5 -120.5z" />
    <glyph glyph-name="o" unicode="o" horiz-adv-x="633" 
d="M453 133v334q0 78 -136.5 78t-136.5 -78v-334q0 -78 136.5 -78t136.5 78zM533 457v-314q0 -83 -59 -120.5t-157 -37.5t-157.5 37.5t-59.5 120.5v314q0 83 59 120.5t157 37.5t157.5 -37.5t59.5 -120.5z" />
    <glyph glyph-name="p" unicode="p" horiz-adv-x="643" 
d="M240 70h87q136 0 136 78v319q0 78 -136.5 78t-136.5 -78v-699q0 -23 -40 -23t-40 23v689q0 83 59 120.5t157 37.5t157.5 -37.5t59.5 -120.5v-299q0 -83 -59 -120.5t-157 -37.5h-87q-20 0 -20 35t20 35z" />
    <glyph glyph-name="q" unicode="q" horiz-adv-x="643" 
d="M316 70h87q20 0 20 -35t-20 -35h-87q-98 0 -157 37.5t-59 120.5v299q0 83 59.5 120.5t157.5 37.5t157 -37.5t59 -120.5v-689q0 -23 -40 -23t-40 23v699q0 78 -136.5 78t-136.5 -78v-319q0 -78 136 -78z" />
    <glyph glyph-name="r" unicode="r" horiz-adv-x="476" 
d="M376 417v50q0 78 -93 78t-93 -78v-459q0 -23 -40 -23t-40 23v449q0 83 47.5 120.5t125.5 37.5q173 0 173 -156v-42q0 -23 -40 -23t-40 23z" />
    <glyph glyph-name="s" unicode="s" horiz-adv-x="632" 
d="M445 427v39q0 79 -129 79q-55 0 -90 -18t-35 -57v-22q0 -54 14 -70.5t60 -27.5l87 -22q124 -32 147 -62q28 -37 28 -98v-36q0 -78 -60.5 -112.5t-156.5 -34.5q-156 0 -198 79q-17 33 -17 80v32q0 13 9 17.5t31 4.5q39 0 39 -25v-45q0 -40 35 -56.5t102 -16.5
q137 0 137 70v53q0 31 -23.5 48t-80.5 32l-88 22q-89 22 -116.5 52.5t-27.5 118.5v12q2 80 57 116t145 36q210 0 210 -156v-35q0 -21 -39.5 -21t-39.5 24z" />
    <glyph glyph-name="t" unicode="t" horiz-adv-x="385" 
d="M230 717v-117h105q20 0 20 -35t-20 -35h-105v-413q0 -32 15 -59.5t15 -28.5q0 -12 -19 -25.5t-32 -13.5q-21 0 -40 36.5t-19 80.5v423h-80q-20 0 -20 35t20 35h80v117q0 23 40 23t40 -23z" />
    <glyph glyph-name="u" unicode="u" horiz-adv-x="653" 
d="M543 582v-439q0 -83 -59.5 -120.5t-157.5 -37.5t-157 37.5t-59 120.5v439q0 23 40 23t40 -23v-449q0 -78 136.5 -78t136.5 78v449q0 23 40 23t40 -23z" />
    <glyph glyph-name="v" unicode="v" horiz-adv-x="610" 
d="M305 -15q-79 0 -112 32t-45 105l-74 442q-3 21 -3 23q0 18 38 18t42 -23l75 -449q7 -43 22.5 -60.5t56.5 -17.5t56.5 17.5t22.5 60.5l75 449q4 23 42 23t38 -18q0 -2 -3 -23l-74 -442q-12 -73 -45 -105t-112 -32z" />
    <glyph glyph-name="w" unicode="w" horiz-adv-x="941" 
d="M432 541q3 22 37.5 22t38.5 -22l66 -408q6 -42 21.5 -60t51.5 -18t48.5 17t20.5 61l75 449q4 23 42 23t38 -18l-77 -465q-12 -73 -42.5 -105t-105 -32t-106 32t-40.5 105l-25 207h-10l-24 -207q-9 -73 -40.5 -105t-106 -32t-105 32t-42.5 105l-77 465q0 18 38 18t42 -23
l75 -449q8 -44 20.5 -61t48.5 -17t51.5 18t21.5 60z" />
    <glyph glyph-name="x" unicode="x" horiz-adv-x="610" 
d="M305 275q-42 0 -63 -19t-31 -59l-45 -179q-5 -23 -42.5 -23t-37.5 18l47 195q19 80 71 102q-49 22 -71 102l-37 136q-10 35 -10 39q0 18 36.5 18t43.5 -23l45 -159q11 -41 31.5 -59.5t62.5 -18.5t62.5 18.5t31.5 59.5l45 159q7 23 43.5 23t36.5 -18q0 -4 -10 -39
l-37 -136q-22 -80 -71 -102q52 -22 71 -102l47 -195q0 -18 -37.5 -18t-42.5 23l-45 179q-10 40 -31 59t-63 19z" />
    <glyph glyph-name="y" unicode="y" horiz-adv-x="610" 
d="M243 -250h-72q-20 0 -20 35t20 35h72q56 0 77 16.5t29 61.5l14 87h-58q-79 0 -112 32t-45 105l-73 440q-4 23 -4 25q0 18 38 18t42 -23l75 -449q7 -43 22.5 -60.5t56.5 -17.5h70l88 527q4 23 40 23t36 -18q0 -2 -3 -23l-111 -656q-16 -95 -51 -126.5t-131 -31.5z" />
    <glyph glyph-name="z" unicode="z" horiz-adv-x="573" 
d="M150 70h323q20 0 20 -35t-20 -35h-383q-20 0 -20 35v35q0 38 7.5 51.5l10.5 19t13.5 17t16 17l22 22.5l26.5 27l202 207q30 31 37 42.5t7 34.5v22h-293q-20 0 -20 35t20 35h353q20 0 20 -35v-55q0 -47 -15 -70t-81 -84l-202 -207q-30 -31 -37 -43t-7 -36z" />
    <glyph glyph-name="braceleft" unicode="{" horiz-adv-x="360" 
d="M214 682v-178q0 -99 -68 -123q68 -25 68 -123v-200q0 -46 20.5 -67t75.5 -21q20 0 20 -35t-20 -35q-90 0 -133 36.5t-43 121.5v200q0 44 -10 62.5t-38 25.5l-15 4q-20 6 -20 31t20 31l15 4q28 7 38 25.5t10 62.5v178q0 85 43 121.5t133 36.5q20 0 20 -35t-20 -35
q-55 0 -75.5 -21t-20.5 -67z" />
    <glyph glyph-name="bar" unicode="|" horiz-adv-x="320" 
d="M196 822v-904q0 -23 -36 -23t-36 23v904q0 23 36 23t36 -23z" />
    <glyph glyph-name="braceright" unicode="}" horiz-adv-x="360" 
d="M146 504v178q0 46 -20.5 67t-75.5 21q-20 0 -20 35t20 35q90 0 133 -36.5t43 -121.5v-178q0 -44 10 -62.5t38 -25.5l15 -4q20 -6 20 -31t-20 -31l-15 -4q-28 -7 -38 -25.5t-10 -62.5v-200q0 -85 -43 -121.5t-133 -36.5q-20 0 -20 35t20 35q55 0 75.5 21t20.5 67v200
q0 98 68 123q-68 23 -68 123z" />
    <glyph glyph-name="asciitilde" unicode="~" 
d="M525 418q0 -53 -32.5 -81t-68 -28t-127.5 27t-116 27q-36 0 -36 -35q0 -20 -35 -20t-35 16q0 53 32.5 81t68 28t127.5 -27t116 -27q36 0 36 35q0 20 35 20t35 -16z" />
    <glyph glyph-name="nbspace" unicode="&#xa0;" horiz-adv-x="370" 
 />
    <glyph glyph-name="exclamdown" unicode="&#xa1;" horiz-adv-x="301" 
d="M150 -215q-50 0 -50 28q9 262 17 518q0 22 33 22t33 -22l17 -517q0 -29 -50 -29zM193 591v-85q0 -24 -42.5 -24t-42.5 24v85q0 24 42.5 24t42.5 -24z" />
    <glyph glyph-name="cent" unicode="&#xa2;" 
d="M370 822v-176h116q20 0 20 -35t-20 -35h-116v-410h116q20 0 20 -35t-20 -35h-116v-178q0 -23 -36 -23t-36 23v178q-86 4 -137 42t-51 116v234q0 78 51 116t137 41v177q0 23 36 23t36 -23zM190 244q0 -71 108 -78v409q-108 -5 -108 -77v-254z" />
    <glyph glyph-name="sterling" unicode="&#xa3;" 
d="M39 410h89l12 164q6 87 40 126.5t118 39.5h192q20 0 20 -35t-20 -35h-192q-42 0 -58 -22t-20 -74l-12 -164h164q18 0 18 -31.5t-18 -31.5h-168l-14 -200q-3 -44 -17 -77h350q20 0 20 -35t-20 -35h-413q-14 0 -32 12.5t-18 26.5q0 3 11 15.5t23.5 39t15.5 63.5l13 190h-84
q-18 0 -18 31.5t18 31.5z" />
    <glyph glyph-name="yen" unicode="&#xa5;" 
d="M459 722q7 23 43.5 23t36.5 -18q0 -1 -15 -53l-54 -184h77q18 0 18 -31.5t-18 -31.5h-96l-4 -15q-17 -56 -36 -82h136q18 0 18 -31.5t-18 -31.5h-207v-249q0 -23 -40 -23t-40 23v249h-207q-18 0 -18 31.5t18 31.5h135q-18 26 -35 82l-5 15h-95q-18 0 -18 31.5t18 31.5h77
l-54 184q-15 52 -15 53q0 18 36.5 18t43.5 -23l96 -327q11 -38 25 -51.5t38 -13.5h7q21 2 33.5 16t22.5 49z" />
    <glyph glyph-name="brokenbar" unicode="&#xa6;" horiz-adv-x="320" 
d="M196 822v-304q0 -23 -36 -23t-36 23v304q0 23 36 23t36 -23zM196 222v-304q0 -23 -36 -23t-36 23v304q0 23 36 23t36 -23z" />
    <glyph glyph-name="section" unicode="&#xa7;" horiz-adv-x="590" 
d="M420 -54v60q0 34 -27 49.5t-89 28.5l-49 10q-90 18 -124 53t-34 123v34q0 108 58 143q-31 20 -44.5 53t-13.5 90v14q0 86 36 126t122 40h212q20 0 20 -35t-20 -35h-212q-43 0 -60.5 -22.5t-17.5 -73.5v-12q0 -55 16.5 -76t61.5 -30l49 -10q117 -25 142 -44q40 -29 47 -57
t7 -57v-82q0 -94 -47 -130q47 -34 47 -108v-52q0 -86 -36 -126t-122 -40h-232q-20 0 -20 35t20 35h232q43 0 60.5 22.5t17.5 73.5zM420 236v90q0 34 -27 49.5t-89 28.5l-49 10q-16 4 -21 4q-31 -5 -44 -27.5t-13 -66.5v-52q0 -55 16.5 -76t61.5 -30l49 -10q57 -12 76 -18
q40 21 40 98z" />
    <glyph glyph-name="dieresis" unicode="&#xa8;" horiz-adv-x="487" 
d="M187 795v-87q0 -25 -43.5 -25t-43.5 25v87q0 25 43.5 25t43.5 -25zM387 795v-87q0 -25 -43.5 -25t-43.5 25v87q0 25 43.5 25t43.5 -25z" />
    <glyph glyph-name="copyright" unicode="&#xa9;" horiz-adv-x="795" 
d="M695 663v-297q0 -101 -88 -146q-83 -43 -215 -43t-212 45.5t-80 143.5v297q0 97 83.5 142t219.5 45q292 0 292 -187zM645 366v297q0 142 -247.5 142t-247.5 -142v-297q0 -144 247.5 -144t247.5 144zM304 646v-264q0 -42 89.5 -42t89.5 42v46q0 22 32.5 22t32.5 -22v-39
q0 -108 -152 -108q-71 0 -114 26t-43 82v250q0 56 43 82t114 26q152 0 152 -108v-40q0 -21 -32.5 -21t-32.5 21v47q0 42 -89.5 42t-89.5 -42z" />
    <glyph glyph-name="ordfeminine" unicode="&#xaa;" horiz-adv-x="472" 
d="M247 380h-48q-61 0 -87 24t-26 83v5q0 57 24 79.5t84 28.5l103 11v63q0 42 -79 42h-87q-19 0 -19 29.5t19 29.5h87q65 0 104.5 -26t39.5 -82v-186q0 -41 14 -65q5 -8 5 -14t-14.5 -17.5t-24.5 -11.5q-16 0 -30.5 29t-14.5 72v78l-97 -11q-32 -4 -40.5 -13t-8.5 -36v-5
q0 -27 9 -38t39 -11h48q19 0 19 -29t-19 -29z" />
    <glyph glyph-name="guillemotleft" unicode="&#xab;" horiz-adv-x="579" 
d="M235 610q5 5 14.5 5t30 -16.5t20.5 -25t-5 -13.5l-141 -201l141 -201q5 -5 5 -14t-21 -25t-30 -16t-14 5l-151 201q-14 20 -14 50t14 50zM444 610q5 5 14.5 5t30 -16.5t20.5 -25t-5 -13.5l-141 -201l141 -201q5 -5 5 -14t-21 -25t-30 -16t-14 5l-151 201q-14 20 -14 50
t14 50z" />
    <glyph glyph-name="logicalnot" unicode="&#xac;" 
d="M95 406h400q30 0 30 -35v-173q0 -23 -36 -23t-36 23v138h-358q-20 0 -20 35t20 35z" />
    <glyph glyph-name="registered" unicode="&#xae;" horiz-adv-x="795" 
d="M695 663v-297q0 -101 -88 -146q-83 -43 -215 -43t-212 45.5t-80 143.5v297q0 97 83.5 142t219.5 45q292 0 292 -187zM373 520h31q80 0 80 43v83q0 42 -80.5 42t-80.5 -42v-336q0 -22 -32.5 -22t-32.5 22v329q0 56 40 82t105.5 26t105 -26t39.5 -82v-69q0 -61 -49 -78
q10 -11 17 -37l32 -118q7 -27 7 -30q0 -19 -29 -19t-34 20l-34 125q-5 19 -14 24t-40 5h-31q-19 0 -19 29t19 29zM645 366v297q0 142 -247.5 142t-247.5 -142v-297q0 -144 247.5 -144t247.5 144z" />
    <glyph glyph-name="macron" unicode="&#xaf;" horiz-adv-x="507" 
d="M120 787h267q20 0 20 -38.5t-20 -38.5h-267q-20 0 -20 38.5t20 38.5z" />
    <glyph glyph-name="degree" unicode="&#xb0;" horiz-adv-x="470" 
d="M387 648v-170q0 -56 -42.5 -82t-112.5 -26q-153 0 -153 108v170q0 56 43.5 81.5t113.5 25.5q151 0 151 -107zM144 655v-184q0 -42 89.5 -42t89.5 42v184q0 42 -89.5 42t-89.5 -42z" />
    <glyph glyph-name="plusminus" unicode="&#xb1;" 
d="M265 166v170h-170q-20 0 -20 35t20 35h170v170q0 20 35 20t35 -20v-170h170q20 0 20 -35t-20 -35h-170v-170q0 -20 -35 -20t-35 20zM95 70h410q20 0 20 -35t-20 -35h-410q-20 0 -20 35t20 35z" />
    <glyph glyph-name="twosuperior" unicode="&#xb2;" horiz-adv-x="470" 
d="M381 651v-10q0 -38 -43 -90l-175 -213h199q19 0 19 -29t-19 -29h-269q-20 0 -20 29q0 15 8 25l203 244q33 41 33 66v7q0 28 -9.5 41t-33.5 13h-154q-19 0 -19 29.5t19 29.5h154q58 0 82.5 -27.5t24.5 -85.5z" />
    <glyph glyph-name="threesuperior" unicode="&#xb3;" horiz-adv-x="470" 
d="M374 641q0 -49 -47 -96q57 -16 57 -96v-71q0 -55 -44 -81.5t-110 -26.5t-108.5 26t-42.5 82v28q0 21 32.5 21t32.5 -21v-35q0 -42 88 -42t88 42v78q0 25 -9 34t-39 9h-110q-19 0 -19 29.5t19 29.5h86l29 28q33 32 33 65v7q0 28 -9.5 41t-32.5 13h-148q-19 0 -19 29.5
t19 29.5h148q58 0 82 -27t24 -86v-10z" />
    <glyph glyph-name="acute" unicode="&#xb4;" horiz-adv-x="305" 
d="M89 670l-7 -3q-9 0 -20.5 17t-11.5 26.5t7 15.5l169 116q5 4 16 4t27 -24.5t16 -41t-11 -22.5z" />
    <glyph glyph-name="mu" unicode="&#xb5;" horiz-adv-x="653" 
d="M543 582v-439q0 -83 -59.5 -120.5t-150.5 -37.5t-145 42v-135q0 -65 24 -102q8 -13 8 -16q0 -12 -19 -25.5t-32 -13.5q-22 0 -40.5 41.5t-18.5 105.5v700q0 23 40 23t40 -23v-449q0 -78 136.5 -78t136.5 78v449q0 23 40 23t40 -23z" />
    <glyph glyph-name="paragraph" unicode="&#xb6;" horiz-adv-x="593" 
d="M483 627v-620q0 -32 15 -59.5t15 -28.5q0 -12 -19 -25.5t-32 -13.5q-21 0 -40 36.5t-19 80.5v323h-137q-98 0 -157 37.5t-59 120.5v149q0 83 59.5 120.5t157.5 37.5t157 -37.5t59 -120.5z" />
    <glyph glyph-name="periodcentered" unicode="&#xb7;" horiz-adv-x="201" 
d="M143 354v-85q0 -24 -42.5 -24t-42.5 24v85q0 24 42.5 24t42.5 -24z" />
    <glyph glyph-name="cedilla" unicode="&#xb8;" horiz-adv-x="596" 
d="M249 -97v-18q0 -29 48.5 -29t48.5 30v60q0 23 -11 31t-38 8v36q62 0 89 -14.5t27 -59.5v-57q0 -43 -34.5 -67.5t-82.5 -24.5t-81 24t-33 68v13q0 21 33.5 21t33.5 -21z" />
    <glyph glyph-name="onesuperior" unicode="&#xb9;" horiz-adv-x="470" 
d="M353 280h-216q-19 0 -19 29t19 29h76v367h-76q-19 0 -19 29.5t19 29.5h96q28 0 36.5 -11.5t8.5 -41.5v-373h75q20 0 20 -29t-20 -29z" />
    <glyph glyph-name="ordmasculine" unicode="&#xba;" horiz-adv-x="491" 
d="M323 471v213q0 42 -79.5 42t-79.5 -42v-213q0 -42 79.5 -42t79.5 42zM387 677v-199q0 -56 -39 -82t-104 -26t-105 26t-40 82v199q0 56 39.5 82t104.5 26t104.5 -26t39.5 -82z" />
    <glyph glyph-name="guillemotright" unicode="&#xbb;" horiz-adv-x="579" 
d="M495 409q14 -20 14 -50t-14 -50l-151 -201q-5 -5 -14 -5t-30 16t-21 25t5 14l141 201l-141 201q-5 5 -5 13.5t20.5 25t30 16.5t14.5 -5zM286 409q14 -20 14 -50t-14 -50l-151 -201q-5 -5 -14 -5t-30 16t-21 25t5 14l141 201l-141 201q-5 5 -5 13.5t20.5 25t30 16.5
t14.5 -5z" />
    <glyph glyph-name="onequarter" unicode="&#xbc;" horiz-adv-x="1011" 
d="M722 480q7 10 21 10t27 -10t13 -20l-75 -165q-34 -74 -34.5 -98t9 -31t38.5 -7h107v170q0 22 32 22t32 -22v-170h27q20 0 20 -28.5t-20 -28.5h-27v-83q0 -22 -32 -22t-32 22v83h-107q-60 0 -86 20.5t-26 66.5v7q0 32 42 125zM336 256h-216q-19 0 -19 29t19 29h76v367h-76
q-19 0 -19 29.5t19 29.5h96q28 0 36.5 -11.5t8.5 -41.5v-373h75q20 0 20 -29t-20 -29zM459 8q-5 -23 -32 -23t-27 17l152 730q5 23 32 23t27 -17z" />
    <glyph glyph-name="onehalf" unicode="&#xbd;" horiz-adv-x="1011" 
d="M926 371v-10q0 -38 -43 -90l-175 -213h199q19 0 19 -29t-19 -29h-269q-20 0 -20 29q0 15 8 25l203 244q33 41 33 66v7q0 28 -9.5 41t-33.5 13h-154q-19 0 -19 29.5t19 29.5h154q58 0 82.5 -27.5t24.5 -85.5zM336 256h-216q-19 0 -19 29t19 29h76v367h-76q-19 0 -19 29.5
t19 29.5h96q28 0 36.5 -11.5t8.5 -41.5v-373h75q20 0 20 -29t-20 -29zM459 8q-5 -23 -32 -23t-27 17l152 730q5 23 32 23t27 -17z" />
    <glyph glyph-name="threequarters" unicode="&#xbe;" horiz-adv-x="1011" 
d="M722 480q7 10 21 10t27 -10t13 -20l-75 -165q-34 -74 -34.5 -98t9 -31t38.5 -7h107v170q0 22 32 22t32 -22v-170h27q20 0 20 -28.5t-20 -28.5h-27v-83q0 -22 -32 -22t-32 22v83h-107q-60 0 -86 20.5t-26 66.5v7q0 32 42 125zM357 617q0 -49 -47 -96q57 -16 57 -96v-71
q0 -55 -44 -81.5t-110 -26.5t-108.5 26t-42.5 82v28q0 21 32.5 21t32.5 -21v-35q0 -42 88 -42t88 42v78q0 25 -9 34t-39 9h-110q-19 0 -19 29.5t19 29.5h86l29 28q33 32 33 65v7q0 28 -9.5 41t-32.5 13h-148q-19 0 -19 29.5t19 29.5h148q58 0 82 -27t24 -86v-10zM459 8
q-5 -23 -32 -23t-27 17l152 730q5 23 32 23t27 -17z" />
    <glyph glyph-name="questiondown" unicode="&#xbf;" horiz-adv-x="467" 
d="M208 506v85q0 24 42.5 24t42.5 -24v-85q0 -24 -42.5 -24t-42.5 24zM251 353q33 0 33 -22l6 -179l-67 -18q-50 -14 -71.5 -29.5t-21.5 -48.5v-123q0 -40 34.5 -59t85.5 -19t84 18.5t33 59.5v54q0 23 40 23t40 -23v-44q0 -81 -57.5 -119.5t-139.5 -38.5q-114 0 -169 66
q-31 37 -31 92v105q0 60 31 98q12 14 38 26.5t43 17.5l53 15l3 126q0 22 33 22z" />
    <glyph glyph-name="Agrave" unicode="&#xc0;" horiz-adv-x="683" 
d="M573 597v-579q0 -23 -40 -23t-40 23v271h-303v-271q0 -23 -40 -23t-40 23v579q0 56 33 92.5t84 51t120 14.5q226 0 226 -158zM190 607v-248h303v248q0 78 -151.5 78t-151.5 -78zM427 807l-192 91q-11 6 -11 22.5t16 41t27 24.5t16 -4l169 -116q7 -6 7 -15.5t-11.5 -26.5
t-20.5 -17z" />
    <glyph glyph-name="Aacute" unicode="&#xc1;" horiz-adv-x="683" 
d="M573 597v-579q0 -23 -40 -23t-40 23v271h-303v-271q0 -23 -40 -23t-40 23v579q0 56 33 92.5t84 51t120 14.5q226 0 226 -158zM190 607v-248h303v248q0 78 -151.5 78t-151.5 -78zM263 810l-7 -3q-9 0 -20.5 17t-11.5 26.5t7 15.5l169 116q5 4 16 4t27 -24.5t16 -41
t-11 -22.5z" />
    <glyph glyph-name="Acircumflex" unicode="&#xc2;" horiz-adv-x="683" 
d="M573 597v-579q0 -23 -40 -23t-40 23v271h-303v-271q0 -23 -40 -23t-40 23v579q0 56 33 92.5t84 51t120 14.5q226 0 226 -158zM190 607v-248h303v248q0 78 -151.5 78t-151.5 -78zM336 986h11q5 0 9 -4l120 -116q7 -7 7 -17.5t-11 -26t-17.5 -15.5t-10.5 3l-103 76
l-103 -76q-5 -3 -7 -3q-10 0 -21 15.5t-11 26t7 17.5l120 116q4 4 10 4z" />
    <glyph glyph-name="Atilde" unicode="&#xc3;" horiz-adv-x="683" 
d="M573 597v-579q0 -23 -40 -23t-40 23v271h-303v-271q0 -23 -40 -23t-40 23v579q0 56 33 92.5t84 51t120 14.5q226 0 226 -158zM190 607v-248h303v248q0 78 -151.5 78t-151.5 -78zM271 871l-5 1q-13 0 -13 -25q0 -20 -35 -20t-35 16q0 55 18 82t47 27q7 0 23 -4l141 -39
q2 -1 6 -1q12 0 12 25q0 20 35 20t35 -16q0 -54 -18 -81t-48 -27q-10 0 -22 3z" />
    <glyph glyph-name="Adieresis" unicode="&#xc4;" horiz-adv-x="683" 
d="M573 597v-579q0 -23 -40 -23t-40 23v271h-303v-271q0 -23 -40 -23t-40 23v579q0 56 33 92.5t84 51t120 14.5q226 0 226 -158zM190 607v-248h303v248q0 78 -151.5 78t-151.5 -78zM285 935v-87q0 -25 -43.5 -25t-43.5 25v87q0 25 43.5 25t43.5 -25zM485 935v-87
q0 -25 -43.5 -25t-43.5 25v87q0 25 43.5 25t43.5 -25z" />
    <glyph glyph-name="Aring" unicode="&#xc5;" horiz-adv-x="683" 
d="M573 597v-579q0 -23 -40 -23t-40 23v271h-303v-271q0 -23 -40 -23t-40 23v579q0 56 33 92.5t84 51t120 14.5q226 0 226 -158zM190 607v-248h303v248q0 78 -151.5 78t-151.5 -78zM452 904v-25q0 -92 -112 -92q-59 0 -84 22.5t-25 69.5v25q0 92 112 92q59 0 84 -22.5
t25 -69.5zM293 913v-44q0 -29 48.5 -29t48.5 30v44q0 29 -48.5 29t-48.5 -30z" />
    <glyph glyph-name="AE" unicode="&#xc6;" horiz-adv-x="965" 
d="M110 597q0 158 232 158q110 0 162 -53q56 53 181 53q89 0 144 -38t55 -120v-15q0 -23 -40 -23t-40 23v25q0 78 -130.5 78t-130.5 -78v-103q0 -42 25.5 -65t72.5 -23h94q20 0 20 -35t-20 -35h-85q-108 0 -108 -88v-125q0 -78 141.5 -78t141.5 78v72q0 23 40 23t40 -23v-62
q0 -83 -60 -120.5t-160.5 -37.5t-161.5 37.5t-61 120.5v85q0 91 67 118h-344v-328q0 -23 -37.5 -23t-37.5 23v579zM185 607v-191h345q-68 26 -68 118v92q0 31 -38.5 45t-96.5 14q-142 0 -142 -78z" />
    <glyph glyph-name="Ccedilla" unicode="&#xc7;" horiz-adv-x="633" 
d="M281 -97v-18q0 -29 48.5 -29t48.5 30v60q0 23 -11 31t-38 8q-104 0 -166.5 37.5t-62.5 120.5v454q0 83 63 120.5t167 37.5q223 0 223 -158v-62q0 -23 -40 -23t-40 23v72q0 78 -146.5 78t-146.5 -78v-474q0 -78 146.5 -78t146.5 78v72q0 23 40 23t40 -23v-62
q0 -115 -123 -147q15 -16 15 -49v-57q0 -43 -34.5 -67.5t-82.5 -24.5t-81 24t-33 68v13q0 21 33.5 21t33.5 -21z" />
    <glyph glyph-name="Egrave" unicode="&#xc8;" horiz-adv-x="603" 
d="M180 258v-125q0 -78 141.5 -78t141.5 78v72q0 23 40 23t40 -23v-62q0 -83 -60 -120.5t-160.5 -37.5t-161.5 37.5t-61 120.5v115q0 103 88 124q-78 24 -78 122v93q0 83 61 120.5t155.5 37.5t149.5 -38t55 -120v-15q0 -23 -40 -23t-40 23v25q0 78 -130.5 78t-130.5 -78
v-103q0 -88 108 -88h75q20 0 20 -35t-20 -35h-85q-108 0 -108 -88zM387 807l-192 91q-11 6 -11 22.5t16 41t27 24.5t16 -4l169 -116q7 -6 7 -15.5t-11.5 -26.5t-20.5 -17z" />
    <glyph glyph-name="Eacute" unicode="&#xc9;" horiz-adv-x="603" 
d="M180 258v-125q0 -78 141.5 -78t141.5 78v72q0 23 40 23t40 -23v-62q0 -83 -60 -120.5t-160.5 -37.5t-161.5 37.5t-61 120.5v115q0 103 88 124q-78 24 -78 122v93q0 83 61 120.5t155.5 37.5t149.5 -38t55 -120v-15q0 -23 -40 -23t-40 23v25q0 78 -130.5 78t-130.5 -78
v-103q0 -88 108 -88h75q20 0 20 -35t-20 -35h-85q-108 0 -108 -88zM223 810l-7 -3q-9 0 -20.5 17t-11.5 26.5t7 15.5l169 116q5 4 16 4t27 -24.5t16 -41t-11 -22.5z" />
    <glyph glyph-name="Ecircumflex" unicode="&#xca;" horiz-adv-x="603" 
d="M180 258v-125q0 -78 141.5 -78t141.5 78v72q0 23 40 23t40 -23v-62q0 -83 -60 -120.5t-160.5 -37.5t-161.5 37.5t-61 120.5v115q0 103 88 124q-78 24 -78 122v93q0 83 61 120.5t155.5 37.5t149.5 -38t55 -120v-15q0 -23 -40 -23t-40 23v25q0 78 -130.5 78t-130.5 -78
v-103q0 -88 108 -88h75q20 0 20 -35t-20 -35h-85q-108 0 -108 -88zM296 986h11q5 0 9 -4l120 -116q7 -7 7 -17.5t-11 -26t-17.5 -15.5t-10.5 3l-103 76l-103 -76q-4 -3 -10.5 -3t-17.5 15.5t-11 26t7 17.5l120 116q4 4 10 4z" />
    <glyph glyph-name="Edieresis" unicode="&#xcb;" horiz-adv-x="603" 
d="M180 258v-125q0 -78 141.5 -78t141.5 78v72q0 23 40 23t40 -23v-62q0 -83 -60 -120.5t-160.5 -37.5t-161.5 37.5t-61 120.5v115q0 103 88 124q-78 24 -78 122v93q0 83 61 120.5t155.5 37.5t149.5 -38t55 -120v-15q0 -23 -40 -23t-40 23v25q0 78 -130.5 78t-130.5 -78
v-103q0 -88 108 -88h75q20 0 20 -35t-20 -35h-85q-108 0 -108 -88zM245 935v-87q0 -25 -43.5 -25t-43.5 25v87q0 25 43.5 25t43.5 -25zM445 935v-87q0 -25 -43.5 -25t-43.5 25v87q0 25 43.5 25t43.5 -25z" />
    <glyph glyph-name="Igrave" unicode="&#xcc;" horiz-adv-x="320" 
d="M200 722v-704q0 -23 -40 -23t-40 23v704q0 23 40 23t40 -23zM246 807l-192 91q-11 6 -11 22.5t16 41t27 24.5t16 -4l169 -116q7 -6 7 -15.5t-11.5 -26.5t-20.5 -17z" />
    <glyph glyph-name="Iacute" unicode="&#xcd;" horiz-adv-x="320" 
d="M200 722v-704q0 -23 -40 -23t-40 23v704q0 23 40 23t40 -23zM82 810l-7 -3q-9 0 -20.5 17t-11.5 26.5t7 15.5l169 116q5 4 16 4t27 -24.5t16 -41t-11 -22.5z" />
    <glyph glyph-name="Icircumflex" unicode="&#xce;" horiz-adv-x="320" 
d="M200 722v-704q0 -23 -40 -23t-40 23v704q0 23 40 23t40 -23zM155 986h11q5 0 9 -4l120 -116q7 -7 7 -17.5t-11 -26t-21 -15.5q-2 0 -7 3l-103 76l-103 -76q-5 -3 -7 -3q-10 0 -21 15.5t-11 26t7 17.5l120 116q4 4 10 4z" />
    <glyph glyph-name="Idieresis" unicode="&#xcf;" horiz-adv-x="320" 
d="M200 722v-704q0 -23 -40 -23t-40 23v704q0 23 40 23t40 -23zM104 935v-87q0 -25 -43.5 -25t-43.5 25v87q0 25 43.5 25t43.5 -25zM304 935v-87q0 -25 -43.5 -25t-43.5 25v87q0 25 43.5 25t43.5 -25z" />
    <glyph glyph-name="Eth" unicode="&#xd0;" horiz-adv-x="683" 
d="M70 404h40v261q0 44 10.5 59.5t49.5 15.5h208q100 0 147.5 -36t47.5 -122v-424q0 -86 -47.5 -122t-147.5 -36h-208q-39 0 -49.5 15.5t-10.5 59.5v259h-40q-20 0 -20 35t20 35zM190 70h188q64 0 89.5 17t25.5 61v444q0 44 -25.5 61t-89.5 17h-188v-266h205q20 0 20 -35
t-20 -35h-205v-264z" />
    <glyph glyph-name="Ntilde" unicode="&#xd1;" horiz-adv-x="713" 
d="M200 670h-10v-652q0 -23 -40 -23t-40 23v647q0 44 10.5 59.5t49.5 15.5h22q70 0 94 -16t40 -80l130 -525q9 -36 17 -45t40 -9h10v652q0 23 40 23t40 -23v-647q0 -44 -10.5 -59.5t-49.5 -15.5h-22q-70 0 -94 16t-40 80l-130 525q-9 36 -17 45t-40 9zM286 871l-5 1
q-13 0 -13 -25q0 -20 -35 -20t-35 16q0 55 18 82t47 27q7 0 23 -4l141 -39q2 -1 6 -1q12 0 12 25q0 20 35 20t35 -16q0 -54 -18 -81t-48 -27q-10 0 -22 3z" />
    <glyph glyph-name="Ograve" unicode="&#xd2;" horiz-adv-x="663" 
d="M563 597v-454q0 -83 -64.5 -120.5t-170.5 -37.5q-228 0 -228 158v454q0 83 64.5 120.5t170.5 37.5q228 0 228 -158zM180 607v-474q0 -78 151.5 -78t151.5 78v474q0 78 -151.5 78t-151.5 -78zM417 807l-192 91q-11 6 -11 22.5t16 41t27 24.5t16 -4l169 -116q7 -6 7 -15.5
t-11.5 -26.5t-20.5 -17z" />
    <glyph glyph-name="Oacute" unicode="&#xd3;" horiz-adv-x="663" 
d="M563 597v-454q0 -83 -64.5 -120.5t-170.5 -37.5q-228 0 -228 158v454q0 83 64.5 120.5t170.5 37.5q228 0 228 -158zM180 607v-474q0 -78 151.5 -78t151.5 78v474q0 78 -151.5 78t-151.5 -78zM253 810l-7 -3q-9 0 -20.5 17t-11.5 26.5t7 15.5l169 116q5 4 16 4t27 -24.5
t16 -41t-11 -22.5z" />
    <glyph glyph-name="Ocircumflex" unicode="&#xd4;" horiz-adv-x="663" 
d="M563 597v-454q0 -83 -64.5 -120.5t-170.5 -37.5q-228 0 -228 158v454q0 83 64.5 120.5t170.5 37.5q228 0 228 -158zM180 607v-474q0 -78 151.5 -78t151.5 78v474q0 78 -151.5 78t-151.5 -78zM326 986h11q5 0 9 -4l120 -116q7 -7 7 -17.5t-11 -26t-17.5 -15.5t-10.5 3
l-103 76l-103 -76q-4 -3 -10.5 -3t-17.5 15.5t-11 26t7 17.5l120 116q4 4 10 4z" />
    <glyph glyph-name="Otilde" unicode="&#xd5;" horiz-adv-x="663" 
d="M563 597v-454q0 -83 -64.5 -120.5t-170.5 -37.5q-228 0 -228 158v454q0 83 64.5 120.5t170.5 37.5q228 0 228 -158zM180 607v-474q0 -78 151.5 -78t151.5 78v474q0 78 -151.5 78t-151.5 -78zM261 871l-5 1q-13 0 -13 -25q0 -20 -35 -20t-35 16q0 55 18 82t47 27
q7 0 23 -4l141 -39q2 -1 6 -1q12 0 12 25q0 20 35 20t35 -16q0 -54 -18 -81t-48 -27q-10 0 -22 3z" />
    <glyph glyph-name="Odieresis" unicode="&#xd6;" horiz-adv-x="663" 
d="M563 597v-454q0 -83 -64.5 -120.5t-170.5 -37.5q-228 0 -228 158v454q0 83 64.5 120.5t170.5 37.5q228 0 228 -158zM180 607v-474q0 -78 151.5 -78t151.5 78v474q0 78 -151.5 78t-151.5 -78zM275 935v-87q0 -25 -43.5 -25t-43.5 25v87q0 25 43.5 25t43.5 -25zM475 935
v-87q0 -25 -43.5 -25t-43.5 25v87q0 25 43.5 25t43.5 -25z" />
    <glyph glyph-name="multiply" unicode="&#xd7;" 
d="M159 180q-5 -5 -14.5 -5t-25 16t-15.5 25t5 14l141 141l-141 141q-5 5 -5 14.5t16.5 25t25 15.5t13.5 -5l141 -141l141 141q5 5 14.5 5t25 -16.5t15.5 -25t-5 -13.5l-141 -141l141 -141q5 -5 5 -14.5t-16 -25t-25 -15.5t-14 5l-141 141z" />
    <glyph glyph-name="Oslash" unicode="&#xd8;" horiz-adv-x="663" 
d="M563 597v-454q0 -83 -64.5 -120.5t-170.5 -37.5q-23 0 -63 4l-19 -71q-7 -23 -40 -23t-33 17q0 2 4 17l20 75q-97 37 -97 139v454q0 83 64.5 120.5t170.5 37.5q23 0 63 -4l19 71q7 23 40 23t33 -17q0 -2 -4 -17l-20 -76q97 -36 97 -138zM180 607v-474q0 -39 36 -58
l163 608q-28 2 -44 2q-155 0 -155 -78zM483 607q0 38 -36 58l-164 -608q14 -2 45 -2q155 0 155 78v474z" />
    <glyph glyph-name="Ugrave" unicode="&#xd9;" horiz-adv-x="683" 
d="M190 133q0 -78 151.5 -78t151.5 78v589q0 23 40 23t40 -23v-579q0 -83 -64.5 -120.5t-170.5 -37.5q-228 0 -228 158v579q0 23 39.5 23t39.5 -23zM427 807l-192 91q-11 6 -11 22.5t16 41t27 24.5t16 -4l169 -116q7 -6 7 -15.5t-11.5 -26.5t-20.5 -17z" />
    <glyph glyph-name="Uacute" unicode="&#xda;" horiz-adv-x="683" 
d="M190 133q0 -78 151.5 -78t151.5 78v589q0 23 40 23t40 -23v-579q0 -83 -64.5 -120.5t-170.5 -37.5q-228 0 -228 158v579q0 23 39.5 23t39.5 -23zM263 810l-7 -3q-9 0 -20.5 17t-11.5 26.5t7 15.5l169 116q5 4 16 4t27 -24.5t16 -41t-11 -22.5z" />
    <glyph glyph-name="Ucircumflex" unicode="&#xdb;" horiz-adv-x="683" 
d="M190 133q0 -78 151.5 -78t151.5 78v589q0 23 40 23t40 -23v-579q0 -83 -64.5 -120.5t-170.5 -37.5q-228 0 -228 158v579q0 23 39.5 23t39.5 -23zM336 986h11q5 0 9 -4l120 -116q7 -7 7 -17.5t-11 -26t-17.5 -15.5t-10.5 3l-103 76l-103 -76q-5 -3 -7 -3q-10 0 -21 15.5
t-11 26t7 17.5l120 116q4 4 10 4z" />
    <glyph glyph-name="Udieresis" unicode="&#xdc;" horiz-adv-x="683" 
d="M190 133q0 -78 151.5 -78t151.5 78v589q0 23 40 23t40 -23v-579q0 -83 -64.5 -120.5t-170.5 -37.5q-228 0 -228 158v579q0 23 39.5 23t39.5 -23zM285 935v-87q0 -25 -43.5 -25t-43.5 25v87q0 25 43.5 25t43.5 -25zM485 935v-87q0 -25 -43.5 -25t-43.5 25v87q0 25 43.5 25
t43.5 -25z" />
    <glyph glyph-name="Yacute" unicode="&#xdd;" horiz-adv-x="580" 
d="M330 18q0 -23 -40 -23t-40 23v229q-51 8 -76 40t-41 95l-78 308q-9 32 -9 37q0 18 37.5 18t42.5 -23l85 -329q11 -42 26.5 -60t52.5 -18t52.5 18t26.5 60l85 329q5 23 42.5 23t37.5 -18q0 -5 -9 -37l-78 -308q-16 -63 -41 -95t-76 -40v-229zM241 810l-7 -3q-9 0 -20.5 17
t-11.5 26.5t7 15.5l169 116q5 4 16 4t27 -24.5t16 -41t-11 -22.5z" />
    <glyph glyph-name="Thorn" unicode="&#xde;" horiz-adv-x="613" 
d="M240 210h87q136 0 136 78v179q0 78 -136.5 78t-136.5 -74v-453q0 -23 -40 -23t-40 23v714q0 23 40 23t40 -23v-155q41 38 137.5 38t156 -37.5t59.5 -120.5v-159q0 -83 -59 -120.5t-157 -37.5h-87q-20 0 -20 35t20 35z" />
    <glyph glyph-name="germandbls" unicode="&#xdf;" horiz-adv-x="687" 
d="M607 256v-113q0 -82 -51 -120t-129 -38t-127.5 38t-49.5 120v44q0 23 40 23t40 -23v-54q0 -41 27.5 -59.5t69.5 -18.5t71 19t29 59v123q0 46 -15.5 62t-70.5 16h-112q-20 0 -20 35t20 35h31l47 48q56 57 56 110v12q0 51 -17.5 73.5t-60.5 22.5h-117q-43 0 -60.5 -24
t-17.5 -82v-546q0 -23 -40 -23t-40 23v546q0 93 36 134.5t122 41.5h117q86 0 122 -40t36 -126v-17q0 -29 -17.5 -67.5t-46.5 -68.5l-17 -18q78 -3 111.5 -35t33.5 -112z" />
    <glyph glyph-name="agrave" unicode="&#xe0;" horiz-adv-x="603" 
d="M363 0h-117q-88 0 -127 36t-39 122v8q0 85 35 117t125 41l173 17v111q0 78 -136 78h-137q-20 0 -20 35t20 35h137q98 0 157 -37.5t59 -120.5v-295q0 -65 23 -103q7 -12 7 -15q0 -12 -19 -25.5t-32 -13.5q-22 0 -40.5 41.5t-18.5 105.5v134l-167 -17q-54 -6 -70 -24
t-16 -64v-8q0 -48 16.5 -68t69.5 -20h117q20 0 20 -35t-20 -35zM392 667l-192 91q-11 6 -11 22.5t16 41t27 24.5t16 -4l169 -116q7 -6 7 -15.5t-11.5 -26.5t-20.5 -17z" />
    <glyph glyph-name="aacute" unicode="&#xe1;" horiz-adv-x="603" 
d="M363 0h-117q-88 0 -127 36t-39 122v8q0 85 35 117t125 41l173 17v111q0 78 -136 78h-137q-20 0 -20 35t20 35h137q98 0 157 -37.5t59 -120.5v-295q0 -65 23 -103q7 -12 7 -15q0 -12 -19 -25.5t-32 -13.5q-22 0 -40.5 41.5t-18.5 105.5v134l-167 -17q-54 -6 -70 -24
t-16 -64v-8q0 -48 16.5 -68t69.5 -20h117q20 0 20 -35t-20 -35zM250 670l-7 -3q-9 0 -20.5 17t-11.5 26.5t7 15.5l169 116q5 4 16 4t27 -24.5t16 -41t-11 -22.5z" />
    <glyph glyph-name="acircumflex" unicode="&#xe2;" horiz-adv-x="603" 
d="M363 0h-117q-88 0 -127 36t-39 122v8q0 85 35 117t125 41l173 17v111q0 78 -136 78h-137q-20 0 -20 35t20 35h137q98 0 157 -37.5t59 -120.5v-295q0 -65 23 -103q7 -12 7 -15q0 -12 -19 -25.5t-32 -13.5q-22 0 -40.5 41.5t-18.5 105.5v134l-167 -17q-54 -6 -70 -24
t-16 -64v-8q0 -48 16.5 -68t69.5 -20h117q20 0 20 -35t-20 -35zM304 846h11q5 0 9 -4l120 -116q7 -7 7 -17.5t-11 -26t-17.5 -15.5t-10.5 3l-103 76l-103 -76q-5 -3 -7 -3q-10 0 -21 15.5t-11 26t7 17.5l120 116q4 4 10 4z" />
    <glyph glyph-name="atilde" unicode="&#xe3;" horiz-adv-x="603" 
d="M363 0h-117q-88 0 -127 36t-39 122v8q0 85 35 117t125 41l173 17v111q0 78 -136 78h-137q-20 0 -20 35t20 35h137q98 0 157 -37.5t59 -120.5v-295q0 -65 23 -103q7 -12 7 -15q0 -12 -19 -25.5t-32 -13.5q-22 0 -40.5 41.5t-18.5 105.5v134l-167 -17q-54 -6 -70 -24
t-16 -64v-8q0 -48 16.5 -68t69.5 -20h117q20 0 20 -35t-20 -35zM231 731l-5 1q-13 0 -13 -25q0 -20 -35 -20t-35 16q0 55 18 82t47 27q7 0 23 -4l141 -39q2 -1 6 -1q12 0 12 25q0 20 35 20t35 -16q0 -54 -18 -81t-48 -27q-10 0 -22 3z" />
    <glyph glyph-name="adieresis" unicode="&#xe4;" horiz-adv-x="603" 
d="M363 0h-117q-88 0 -127 36t-39 122v8q0 85 35 117t125 41l173 17v111q0 78 -136 78h-137q-20 0 -20 35t20 35h137q98 0 157 -37.5t59 -120.5v-295q0 -65 23 -103q7 -12 7 -15q0 -12 -19 -25.5t-32 -13.5q-22 0 -40.5 41.5t-18.5 105.5v134l-167 -17q-54 -6 -70 -24
t-16 -64v-8q0 -48 16.5 -68t69.5 -20h117q20 0 20 -35t-20 -35zM252 795v-87q0 -25 -43.5 -25t-43.5 25v87q0 25 43.5 25t43.5 -25zM452 795v-87q0 -25 -43.5 -25t-43.5 25v87q0 25 43.5 25t43.5 -25z" />
    <glyph glyph-name="aring" unicode="&#xe5;" horiz-adv-x="603" 
d="M363 0h-117q-88 0 -127 36t-39 122v8q0 85 35 117t125 41l173 17v111q0 78 -136 78h-137q-20 0 -20 35t20 35h137q98 0 157 -37.5t59 -120.5v-295q0 -65 23 -103q7 -12 7 -15q0 -12 -19 -25.5t-32 -13.5q-22 0 -40.5 41.5t-18.5 105.5v134l-167 -17q-54 -6 -70 -24
t-16 -64v-8q0 -48 16.5 -68t69.5 -20h117q20 0 20 -35t-20 -35zM412 764v-25q0 -92 -112 -92q-59 0 -84 22.5t-25 69.5v25q0 92 112 92q59 0 84 -22.5t25 -69.5zM253 773v-44q0 -29 48.5 -29t48.5 30v44q0 29 -48.5 29t-48.5 -30z" />
    <glyph glyph-name="ae" unicode="&#xe6;" horiz-adv-x="951" 
d="M363 0h-117q-88 0 -127 36t-39 122v8q0 85 35 117t125 41l173 17v115q-4 74 -136 74h-137q-20 0 -20 35t20 35h137q111 0 167 -46q56 67 202 67q101 0 153 -36t52 -120v-11q0 -85 -35 -117t-128 -41l-195 -19v-138q0 -78 130 -78q148 0 148 68v38q0 23 40 23t40 -23v-28
q0 -148 -220 -148q-97 0 -157.5 38t-60.5 120v122l-167 -17q-54 -6 -70 -24t-16 -64v-8q0 -48 16.5 -68t69.5 -20h117q20 0 20 -35t-20 -35zM493 473v-126l188 19q57 6 73.5 24t16.5 64v19q0 78 -139 78t-139 -78z" />
    <glyph glyph-name="ccedilla" unicode="&#xe7;" horiz-adv-x="596" 
d="M260 -97v-18q0 -29 48.5 -29t48.5 30v60q0 22 -9 30t-32 9h-8q-94 0 -151 37.5t-57 120.5v314q0 83 57 120.5t151.5 37.5t151 -37.5t56.5 -120.5v-32q0 -23 -40 -23t-40 23v42q0 78 -128 78t-128 -78v-334q0 -78 128 -78t128 78v42q0 23 40 23t40 -23v-32
q0 -111 -109 -145q17 -17 17 -51v-57q0 -43 -34.5 -67.5t-82.5 -24.5t-81 24t-33 68v13q0 21 33.5 21t33.5 -21z" />
    <glyph glyph-name="egrave" unicode="&#xe8;" horiz-adv-x="638" 
d="M538 459v-30q0 -85 -35 -117t-128 -41l-195 -19v-119q0 -78 130 -78q148 0 148 68v38q0 23 40 23t40 -23v-28q0 -148 -220 -148q-97 0 -157.5 38t-60.5 120v314q0 83 64 120.5t167 37.5t155 -36t52 -120zM180 467v-145l188 19q57 6 73.5 24t16.5 64v38q0 78 -139 78
t-139 -78zM404 667l-192 91q-11 6 -11 22.5t16 41t27 24.5t16 -4l169 -116q7 -6 7 -15.5t-11.5 -26.5t-20.5 -17z" />
    <glyph glyph-name="eacute" unicode="&#xe9;" horiz-adv-x="638" 
d="M538 459v-30q0 -85 -35 -117t-128 -41l-195 -19v-119q0 -78 130 -78q148 0 148 68v38q0 23 40 23t40 -23v-28q0 -148 -220 -148q-97 0 -157.5 38t-60.5 120v314q0 83 64 120.5t167 37.5t155 -36t52 -120zM180 467v-145l188 19q57 6 73.5 24t16.5 64v38q0 78 -139 78
t-139 -78zM260 670l-7 -3q-9 0 -20.5 17t-11.5 26.5t7 15.5l169 116q5 4 16 4t27 -24.5t16 -41t-11 -22.5z" />
    <glyph glyph-name="ecircumflex" unicode="&#xea;" horiz-adv-x="638" 
d="M538 459v-30q0 -85 -35 -117t-128 -41l-195 -19v-119q0 -78 130 -78q148 0 148 68v38q0 23 40 23t40 -23v-28q0 -148 -220 -148q-97 0 -157.5 38t-60.5 120v314q0 83 64 120.5t167 37.5t155 -36t52 -120zM180 467v-145l188 19q57 6 73.5 24t16.5 64v38q0 78 -139 78
t-139 -78zM314 846h11q5 0 9 -4l120 -116q7 -7 7 -17.5t-11 -26t-17.5 -15.5t-10.5 3l-103 76l-103 -76q-4 -3 -10.5 -3t-17.5 15.5t-11 26t7 17.5l120 116q4 4 10 4z" />
    <glyph glyph-name="edieresis" unicode="&#xeb;" horiz-adv-x="638" 
d="M538 459v-30q0 -85 -35 -117t-128 -41l-195 -19v-119q0 -78 130 -78q148 0 148 68v38q0 23 40 23t40 -23v-28q0 -148 -220 -148q-97 0 -157.5 38t-60.5 120v314q0 83 64 120.5t167 37.5t155 -36t52 -120zM180 467v-145l188 19q57 6 73.5 24t16.5 64v38q0 78 -139 78
t-139 -78zM262 795v-87q0 -25 -43.5 -25t-43.5 25v87q0 25 43.5 25t43.5 -25zM462 795v-87q0 -25 -43.5 -25t-43.5 25v87q0 25 43.5 25t43.5 -25z" />
    <glyph glyph-name="igrave" unicode="&#xec;" horiz-adv-x="300" 
d="M190 577v-460q0 -32 15 -59.5t15 -28.5q0 -12 -19 -25.5t-32 -13.5q-21 0 -40 36.5t-19 80.5v470q0 23 40 23t40 -23zM236 667l-192 91q-11 6 -11 22.5t16 41t27 24.5t16 -4l169 -116q7 -6 7 -15.5t-11.5 -26.5t-20.5 -17z" />
    <glyph glyph-name="iacute" unicode="&#xed;" horiz-adv-x="300" 
d="M190 577v-460q0 -32 15 -59.5t15 -28.5q0 -12 -19 -25.5t-32 -13.5q-21 0 -40 36.5t-19 80.5v470q0 23 40 23t40 -23zM72 670l-7 -3q-9 0 -20.5 17t-11.5 26.5t7 15.5l169 116q5 4 16 4t27 -24.5t16 -41t-11 -22.5z" />
    <glyph glyph-name="icircumflex" unicode="&#xee;" horiz-adv-x="300" 
d="M190 577v-460q0 -32 15 -59.5t15 -28.5q0 -12 -19 -25.5t-32 -13.5q-21 0 -40 36.5t-19 80.5v470q0 23 40 23t40 -23zM145 846h11q5 0 9 -4l120 -116q7 -7 7 -17.5t-11 -26t-21 -15.5q-2 0 -7 3l-103 76l-103 -76q-4 -3 -10.5 -3t-17.5 15.5t-11 26t7 17.5l120 116
q4 4 10 4z" />
    <glyph glyph-name="idieresis" unicode="&#xef;" horiz-adv-x="300" 
d="M190 577v-460q0 -32 15 -59.5t15 -28.5q0 -12 -19 -25.5t-32 -13.5q-21 0 -40 36.5t-19 80.5v470q0 23 40 23t40 -23zM94 795v-87q0 -25 -43.5 -25t-43.5 25v87q0 25 43.5 25t43.5 -25zM294 795v-87q0 -25 -43.5 -25t-43.5 25v87q0 25 43.5 25t43.5 -25z" />
    <glyph glyph-name="eth" unicode="&#xf0;" horiz-adv-x="654" 
d="M533 546v-403q0 -83 -59 -120.5t-157 -37.5t-157.5 37.5t-59.5 120.5v244q0 83 59 120.5t161.5 37.5t141.5 -49v51q0 26 -10 64l-10 36l-94 -25q-18 0 -18 29t21 35l75 20l-20 76q0 18 33 18t39 -21l14 -55l100 27q18 0 18 -30t-21 -34l-81 -22l10 -35q15 -58 15 -84z
M453 133v264q0 78 -136.5 78t-136.5 -78v-264q0 -78 136.5 -78t136.5 78z" />
    <glyph glyph-name="ntilde" unicode="&#xf1;" horiz-adv-x="653" 
d="M543 457v-439q0 -23 -40 -23t-40 23v449q0 78 -136.5 78t-136.5 -78v-449q0 -23 -40 -23t-40 23v439q0 83 59 120.5t157 37.5t157.5 -37.5t59.5 -120.5zM266 731l-5 1q-13 0 -13 -25q0 -20 -35 -20t-35 16q0 55 18 82t47 27q7 0 23 -4l141 -39q2 -1 6 -1q12 0 12 25
q0 20 35 20t35 -16q0 -54 -18 -81t-48 -27q-10 0 -22 3z" />
    <glyph glyph-name="ograve" unicode="&#xf2;" horiz-adv-x="633" 
d="M453 133v334q0 78 -136.5 78t-136.5 -78v-334q0 -78 136.5 -78t136.5 78zM533 457v-314q0 -83 -59 -120.5t-157 -37.5t-157.5 37.5t-59.5 120.5v314q0 83 59 120.5t157 37.5t157.5 -37.5t59.5 -120.5zM402 667l-192 91q-11 6 -11 22.5t16 41t27 24.5t16 -4l169 -116
q7 -6 7 -15.5t-11.5 -26.5t-20.5 -17z" />
    <glyph glyph-name="oacute" unicode="&#xf3;" horiz-adv-x="633" 
d="M453 133v334q0 78 -136.5 78t-136.5 -78v-334q0 -78 136.5 -78t136.5 78zM533 457v-314q0 -83 -59 -120.5t-157 -37.5t-157.5 37.5t-59.5 120.5v314q0 83 59 120.5t157 37.5t157.5 -37.5t59.5 -120.5zM258 670l-7 -3q-9 0 -20.5 17t-11.5 26.5t7 15.5l169 116q5 4 16 4
t27 -24.5t16 -41t-11 -22.5z" />
    <glyph glyph-name="ocircumflex" unicode="&#xf4;" horiz-adv-x="633" 
d="M453 133v334q0 78 -136.5 78t-136.5 -78v-334q0 -78 136.5 -78t136.5 78zM533 457v-314q0 -83 -59 -120.5t-157 -37.5t-157.5 37.5t-59.5 120.5v314q0 83 59 120.5t157 37.5t157.5 -37.5t59.5 -120.5zM311 846h11q5 0 9 -4l120 -116q7 -7 7 -17.5t-11 -26t-21 -15.5
q-2 0 -7 3l-103 76l-103 -76q-5 -3 -7 -3q-10 0 -21 15.5t-11 26t7 17.5l120 116q4 4 10 4z" />
    <glyph glyph-name="otilde" unicode="&#xf5;" horiz-adv-x="633" 
d="M453 133v334q0 78 -136.5 78t-136.5 -78v-334q0 -78 136.5 -78t136.5 78zM533 457v-314q0 -83 -59 -120.5t-157 -37.5t-157.5 37.5t-59.5 120.5v314q0 83 59 120.5t157 37.5t157.5 -37.5t59.5 -120.5zM246 731l-5 1q-13 0 -13 -25q0 -20 -35 -20t-35 16q0 55 18 82t47 27
q7 0 23 -4l141 -39q2 -1 6 -1q12 0 12 25q0 20 35 20t35 -16q0 -54 -18 -81t-48 -27q-10 0 -22 3z" />
    <glyph glyph-name="odieresis" unicode="&#xf6;" horiz-adv-x="633" 
d="M453 133v334q0 78 -136.5 78t-136.5 -78v-334q0 -78 136.5 -78t136.5 78zM533 457v-314q0 -83 -59 -120.5t-157 -37.5t-157.5 37.5t-59.5 120.5v314q0 83 59 120.5t157 37.5t157.5 -37.5t59.5 -120.5zM260 795v-87q0 -25 -43.5 -25t-43.5 25v87q0 25 43.5 25t43.5 -25z
M460 795v-87q0 -25 -43.5 -25t-43.5 25v87q0 25 43.5 25t43.5 -25z" />
    <glyph glyph-name="divide" unicode="&#xf7;" 
d="M342 188v-85q0 -24 -42.5 -24t-42.5 24v85q0 24 42.5 24t42.5 -24zM342 615v-85q0 -24 -42.5 -24t-42.5 24v85q0 24 42.5 24t42.5 -24zM95 406h410q20 0 20 -35t-20 -35h-410q-20 0 -20 35t20 35z" />
    <glyph glyph-name="oslash" unicode="&#xf8;" horiz-adv-x="633" 
d="M533 457v-314q0 -83 -59 -120.5t-157 -37.5q-25 0 -48 3l-38 -141q-7 -23 -40 -23t-33 17q0 2 4 17l38 144q-100 35 -100 141v314q0 83 59 120.5t157 37.5q25 0 49 -3l37 139q7 23 40 23t33 -17q0 -2 -4 -17l-38 -143q100 -37 100 -140zM180 133q0 -40 39 -61l127 472
q-10 1 -30 1q-136 0 -136 -78v-334zM453 133v334q0 41 -39 60l-127 -471q10 -1 30 -1q136 0 136 78z" />
    <glyph glyph-name="ugrave" unicode="&#xf9;" horiz-adv-x="653" 
d="M543 582v-439q0 -83 -59.5 -120.5t-157.5 -37.5t-157 37.5t-59 120.5v439q0 23 40 23t40 -23v-449q0 -78 136.5 -78t136.5 78v449q0 23 40 23t40 -23zM412 667l-192 91q-11 6 -11 22.5t16 41t27 24.5t16 -4l169 -116q7 -6 7 -15.5t-11.5 -26.5t-20.5 -17z" />
    <glyph glyph-name="uacute" unicode="&#xfa;" horiz-adv-x="653" 
d="M543 582v-439q0 -83 -59.5 -120.5t-157.5 -37.5t-157 37.5t-59 120.5v439q0 23 40 23t40 -23v-449q0 -78 136.5 -78t136.5 78v449q0 23 40 23t40 -23zM268 670l-7 -3q-9 0 -20.5 17t-11.5 26.5t7 15.5l169 116q5 4 16 4t27 -24.5t16 -41t-11 -22.5z" />
    <glyph glyph-name="ucircumflex" unicode="&#xfb;" horiz-adv-x="653" 
d="M543 582v-439q0 -83 -59.5 -120.5t-157.5 -37.5t-157 37.5t-59 120.5v439q0 23 40 23t40 -23v-449q0 -78 136.5 -78t136.5 78v449q0 23 40 23t40 -23zM321 846h11q5 0 9 -4l120 -116q7 -7 7 -17.5t-11 -26t-21 -15.5q-2 0 -7 3l-103 76l-103 -76q-5 -3 -7 -3
q-10 0 -21 15.5t-11 26t7 17.5l120 116q4 4 10 4z" />
    <glyph glyph-name="udieresis" unicode="&#xfc;" horiz-adv-x="653" 
d="M543 582v-439q0 -83 -59.5 -120.5t-157.5 -37.5t-157 37.5t-59 120.5v439q0 23 40 23t40 -23v-449q0 -78 136.5 -78t136.5 78v449q0 23 40 23t40 -23zM270 795v-87q0 -25 -43.5 -25t-43.5 25v87q0 25 43.5 25t43.5 -25zM470 795v-87q0 -25 -43.5 -25t-43.5 25v87
q0 25 43.5 25t43.5 -25z" />
    <glyph glyph-name="yacute" unicode="&#xfd;" horiz-adv-x="610" 
d="M243 -250h-72q-20 0 -20 35t20 35h72q56 0 77 16.5t29 61.5l14 87h-58q-79 0 -112 32t-45 105l-73 440q-4 23 -4 25q0 18 38 18t42 -23l75 -449q7 -43 22.5 -60.5t56.5 -17.5h70l88 527q4 23 40 23t36 -18q0 -2 -3 -23l-111 -656q-16 -95 -51 -126.5t-131 -31.5zM256 670
l-7 -3q-9 0 -20.5 17t-11.5 26.5t7 15.5l169 116q5 4 16 4t27 -24.5t16 -41t-11 -22.5z" />
    <glyph glyph-name="thorn" unicode="&#xfe;" horiz-adv-x="643" 
d="M190 467v-699q0 -23 -40 -23t-40 23v1009q0 23 40 23t40 -23v-188q53 26 143.5 26t150 -37.5t59.5 -120.5v-299q0 -83 -59 -120.5t-157 -37.5h-87q-20 0 -20 35t20 35h87q136 0 136 78v319q0 78 -136.5 78t-136.5 -78z" />
    <glyph glyph-name="ydieresis" unicode="&#xff;" horiz-adv-x="610" 
d="M243 -250h-72q-20 0 -20 35t20 35h72q56 0 77 16.5t29 61.5l14 87h-58q-79 0 -112 32t-45 105l-73 440q-4 23 -4 25q0 18 38 18t42 -23l75 -449q7 -43 22.5 -60.5t56.5 -17.5h70l88 527q4 23 40 23t36 -18q0 -2 -3 -23l-111 -656q-16 -95 -51 -126.5t-131 -31.5zM248 795
v-87q0 -25 -43.5 -25t-43.5 25v87q0 25 43.5 25t43.5 -25zM448 795v-87q0 -25 -43.5 -25t-43.5 25v87q0 25 43.5 25t43.5 -25z" />
    <glyph glyph-name="dotlessi" unicode="&#x131;" horiz-adv-x="300" 
d="M190 577v-460q0 -32 15 -59.5t15 -28.5q0 -12 -19 -25.5t-32 -13.5q-21 0 -40 36.5t-19 80.5v470q0 23 40 23t40 -23z" />
    <glyph glyph-name="Lslash" unicode="&#x141;" horiz-adv-x="460" 
d="M268 70h162q20 0 20 -35t-20 -35h-162q-86 0 -122 41.5t-36 134.5v158l-42 -11q-18 0 -18 29t21 35l39 10v325q0 23 40 23t40 -23v-303l122 33q18 0 18 -30t-21 -34l-119 -32v-180q0 -58 17.5 -82t60.5 -24z" />
    <glyph glyph-name="lslash" unicode="&#x142;" horiz-adv-x="300" 
d="M190 777v-348l83 23q18 0 18 -30t-21 -34l-80 -22v-249q0 -32 15 -59.5t15 -28.5q0 -12 -19 -25.5t-32 -13.5q-21 0 -40 36.5t-19 80.5v238l-81 -22q-18 0 -18 29t21 35l78 21v369q0 23 40 23t40 -23z" />
    <glyph glyph-name="OE" unicode="&#x152;" horiz-adv-x="986" 
d="M705 755q89 0 144 -38t55 -120v-15q0 -23 -40 -23t-40 23v25q0 78 -130.5 78t-130.5 -78v-103q0 -88 108 -88h85q20 0 20 -35t-20 -35h-85q-108 0 -108 -88v-125q0 -78 141.5 -78t141.5 78v72q0 23 40 23t40 -23v-62q0 -83 -60 -120.5t-160 -37.5q-129 0 -184 55
q-59 -55 -194 -55q-228 0 -228 158v454q0 83 64.5 120.5t182.5 37.5t176 -55q56 55 182 55zM483 133v125q0 99 83 123q-83 22 -83 123v103q0 78 -151.5 78t-151.5 -78v-474q0 -78 151.5 -78t151.5 78z" />
    <glyph glyph-name="oe" unicode="&#x153;" horiz-adv-x="991" 
d="M891 459v-30q0 -85 -35 -117t-128 -41l-195 -19v-119q0 -78 130 -78q148 0 148 68v38q0 23 40 23t40 -23v-28q0 -148 -220 -148q-123 0 -178 54q-54 -54 -176 -54q-98 0 -157.5 37.5t-59.5 120.5v314q0 83 59 120.5t157 37.5q123 0 178 -55q59 55 192 55q101 0 153 -36
t52 -120zM453 133v334q0 78 -136.5 78t-136.5 -78v-334q0 -78 136.5 -78t136.5 78zM533 467v-145l188 19q57 6 73.5 24t16.5 64v38q0 78 -139 78t-139 -78z" />
    <glyph glyph-name="Scaron" unicode="&#x160;" horiz-adv-x="617" 
d="M457 133v113q0 33 -26 48t-90 30l-89 20q-61 14 -92 31q-66 35 -66 145v77q0 83 59.5 120.5t157.5 37.5t157 -37.5t59 -120.5v-44q0 -23 -40 -23t-40 23v54q0 78 -136.5 78t-136.5 -78v-85q0 -55 16.5 -75.5t61.5 -30.5l89 -20q96 -21 109.5 -28.5t31.5 -16.5t24.5 -18.5
l15.5 -23.5q15 -23 15 -71v-95q0 -82 -65.5 -120t-165 -38t-163 38t-63.5 120v44q0 23 40 23t40 -23v-54q0 -41 41.5 -59.5t105 -18.5t107 19t43.5 59zM314 802h-11q-6 0 -10 4l-120 116q-7 7 -7 17.5t11 26t21 15.5q2 0 7 -3l103 -76l103 76q5 3 7 3q10 0 21 -15.5t11 -26
t-7 -17.5l-120 -116q-4 -4 -9 -4z" />
    <glyph glyph-name="scaron" unicode="&#x161;" horiz-adv-x="632" 
d="M445 427v39q0 79 -129 79q-55 0 -90 -18t-35 -57v-22q0 -54 14 -70.5t60 -27.5l87 -22q124 -32 147 -62q28 -37 28 -98v-36q0 -78 -60.5 -112.5t-156.5 -34.5q-156 0 -198 79q-17 33 -17 80v32q0 13 9 17.5t31 4.5q39 0 39 -25v-45q0 -40 35 -56.5t102 -16.5
q137 0 137 70v53q0 31 -23.5 48t-80.5 32l-88 22q-89 22 -116.5 52.5t-27.5 118.5v12q2 80 57 116t145 36q210 0 210 -156v-35q0 -21 -39.5 -21t-39.5 24zM322 662h-11q-6 0 -10 4l-120 116q-7 7 -7 17.5t11 26t21 15.5q2 0 7 -3l103 -76l103 76q4 3 10.5 3t17.5 -15.5
t11 -26t-7 -17.5l-120 -116q-4 -4 -9 -4z" />
    <glyph glyph-name="Ydieresis" unicode="&#x178;" horiz-adv-x="580" 
d="M330 18q0 -23 -40 -23t-40 23v229q-51 8 -76 40t-41 95l-78 308q-9 32 -9 37q0 18 37.5 18t42.5 -23l85 -329q11 -42 26.5 -60t52.5 -18t52.5 18t26.5 60l85 329q5 23 42.5 23t37.5 -18q0 -5 -9 -37l-78 -308q-16 -63 -41 -95t-76 -40v-229zM233 935v-87q0 -25 -43.5 -25
t-43.5 25v87q0 25 43.5 25t43.5 -25zM433 935v-87q0 -25 -43.5 -25t-43.5 25v87q0 25 43.5 25t43.5 -25z" />
    <glyph glyph-name="Zcaron" unicode="&#x17d;" horiz-adv-x="595" 
d="M140 90v-20h376q20 0 20 -35t-20 -35h-436q-20 0 -20 35v57q0 36 10.5 55.5t14 25t15 19l15.5 18.5q20 25 41 46l255 287q25 29 34.5 46t9.5 41v40h-336q-20 0 -20 35t20 35h396q20 0 20 -35v-77q0 -36 -10.5 -55.5t-14 -25t-15 -19l-15.5 -18.5q-20 -25 -41 -46
l-255 -287q-25 -29 -34.5 -46t-9.5 -41zM333 802h-11q-6 0 -10 4l-120 116q-7 7 -7 17.5t11 26t21 15.5q2 0 7 -3l103 -76l103 76q4 3 10.5 3t17.5 -15.5t11 -26t-7 -17.5l-120 -116q-4 -4 -9 -4z" />
    <glyph glyph-name="zcaron" unicode="&#x17e;" horiz-adv-x="573" 
d="M150 70h323q20 0 20 -35t-20 -35h-383q-20 0 -20 35v35q0 38 7.5 51.5l10.5 19t13.5 17t16 17l22 22.5l26.5 27l202 207q30 31 37 42.5t7 34.5v22h-293q-20 0 -20 35t20 35h353q20 0 20 -35v-55q0 -47 -15 -70t-81 -84l-202 -207q-30 -31 -37 -43t-7 -36zM312 662h-11
q-6 0 -10 4l-120 116q-7 7 -7 17.5t11 26t21 15.5q2 0 7 -3l103 -76l103 76q4 3 10.5 3t17.5 -15.5t11 -26t-7 -17.5l-120 -116q-4 -4 -9 -4z" />
    <glyph glyph-name="florin" unicode="&#x192;" 
d="M99 410h113l8 164q4 86 38.5 126t119.5 40h92q20 0 20 -35t-20 -35h-92q-42 0 -59 -22.5t-19 -73.5l-8 -164h140q18 0 18 -31.5t-18 -31.5h-143l-19 -400q-3 -62 -29 -104.5t-50 -42.5q-13 0 -32 13.5t-19 25.5q0 3 11 15.5t23.5 39t15.5 63.5l19 390h-110
q-18 0 -18 31.5t18 31.5z" />
    <glyph glyph-name="circumflex" unicode="&#x2c6;" horiz-adv-x="484" 
d="M237 846h11q5 0 9 -4l120 -116q7 -7 7 -17.5t-11 -26t-21 -15.5q-2 0 -7 3l-103 76l-103 -76q-5 -3 -7 -3q-10 0 -21 15.5t-11 26t7 17.5l120 116q4 4 10 4z" />
    <glyph glyph-name="caron" unicode="&#x2c7;" horiz-adv-x="484" 
d="M248 662h-11q-6 0 -10 4l-120 116q-7 7 -7 17.5t11 26t21 15.5q2 0 7 -3l103 -76l103 76q5 3 7 3q10 0 21 -15.5t11 -26t-7 -17.5l-120 -116q-4 -4 -9 -4z" />
    <glyph glyph-name="breve" unicode="&#x2d8;" horiz-adv-x="344" 
d="M121 794v-25q0 -29 51 -29t51 30v24q0 20 35.5 20t35.5 -20v-25q0 -92 -124 -92q-64 0 -92 22.5t-28 69.5v25q0 20 35.5 20t35.5 -20z" />
    <glyph glyph-name="dotaccent" unicode="&#x2d9;" horiz-adv-x="287" 
d="M187 795v-87q0 -25 -43.5 -25t-43.5 25v87q0 25 43.5 25t43.5 -25z" />
    <glyph glyph-name="ring" unicode="&#x2da;" horiz-adv-x="287" 
d="M254 764v-25q0 -92 -112 -92q-59 0 -84 22.5t-25 69.5v25q0 92 112 92q59 0 84 -22.5t25 -69.5zM95 773v-44q0 -29 48.5 -29t48.5 30v44q0 29 -48.5 29t-48.5 -30z" />
    <glyph glyph-name="ogonek" unicode="&#x2db;" horiz-adv-x="638" 
d="M285 -109v-25q0 -30 48.5 -30t48.5 29v18q0 21 33.5 21t33.5 -21v-13q0 -44 -33 -68t-81 -24t-82.5 24.5t-34.5 67.5v22q0 31 3.5 46t24.5 34t65 36l105 41l20 -49l-105 -41q-21 -8 -32 -21.5t-12.5 -22.5t-1.5 -24z" />
    <glyph glyph-name="tilde" unicode="&#x2dc;" horiz-adv-x="517" 
d="M188 731l-5 1q-13 0 -13 -25q0 -20 -35 -20t-35 16q0 55 18 82t47 27q7 0 23 -4l141 -39q2 -1 6 -1q12 0 12 25q0 20 35 20t35 -16q0 -54 -18 -81t-48 -27q-10 0 -22 3z" />
    <glyph glyph-name="hungarumlaut" unicode="&#x2dd;" horiz-adv-x="517" 
d="M225 842q16 0 34 -25.5t18 -40t-9 -19.5l-136 -82q-15 -8 -18 -8q-11 0 -22.5 17t-11.5 26.5t5 13.5l128 113q5 5 12 5zM445 842q16 0 34 -25.5t18 -40t-9 -19.5l-136 -82q-15 -8 -18 -8q-11 0 -22.5 17t-11.5 26.5t5 13.5l128 113q5 5 12 5z" />
    <glyph glyph-name="pi" unicode="&#x3c0;" horiz-adv-x="635" 
d="M50 600h535q20 0 20 -35t-20 -35h-70v-413q0 -32 15 -59.5t15 -28.5q0 -12 -19 -25.5t-32 -13.5q-21 0 -40 36.5t-19 80.5v423h-235v-512q0 -23 -40 -23t-40 23v512h-70q-20 0 -20 35t20 35z" />
    <glyph glyph-name="endash" unicode="&#x2013;" horiz-adv-x="653" 
d="M110 359h433q20 0 20 -35t-20 -35h-433q-20 0 -20 35t20 35z" />
    <glyph glyph-name="emdash" unicode="&#x2014;" horiz-adv-x="966" 
d="M110 359h746q20 0 20 -35t-20 -35h-746q-20 0 -20 35t20 35z" />
    <glyph glyph-name="quoteleft" unicode="&#x2018;" horiz-adv-x="201" 
d="M58 549v111q0 32 18 83l9 24q3 9 15.5 9t27 -8t14.5 -15q0 -4 -2 -9l-15 -40q-6 -18 -6 -27t12 -26.5t12 -29.5v-72q0 -24 -42.5 -24t-42.5 24z" />
    <glyph glyph-name="quoteright" unicode="&#x2019;" horiz-adv-x="201" 
d="M143 766v-111q0 -32 -18 -83l-9 -24q-3 -9 -15.5 -9t-27 8t-14.5 15q0 4 2 9l15 40q6 18 6 27t-12 26.5t-12 29.5v72q0 24 42.5 24t42.5 -24z" />
    <glyph glyph-name="quotesinglbase" unicode="&#x201a;" horiz-adv-x="201" 
d="M143 94v-111q0 -32 -18 -83l-9 -24q-3 -9 -15.5 -9t-27 8t-14.5 15q0 4 2 9l15 40q6 18 6 27t-12 26.5t-12 29.5v72q0 24 42.5 24t42.5 -24z" />
    <glyph glyph-name="quotedblleft" unicode="&#x201c;" horiz-adv-x="371" 
d="M228 549v111q0 32 18 83l9 24q3 9 15.5 9t27 -8t14.5 -15q0 -4 -2 -9l-15 -40q-6 -18 -6 -27t12 -26.5t12 -29.5v-72q0 -24 -42.5 -24t-42.5 24zM58 549v111q0 32 18 83l9 24q3 9 15.5 9t27 -8t14.5 -15q0 -4 -2 -9l-15 -40q-6 -18 -6 -27t12 -26.5t12 -29.5v-72
q0 -24 -42.5 -24t-42.5 24z" />
    <glyph glyph-name="quotedblright" unicode="&#x201d;" horiz-adv-x="371" 
d="M143 766v-111q0 -32 -18 -83l-9 -24q-3 -9 -15.5 -9t-27 8t-14.5 15q0 4 2 9l15 40q6 18 6 27t-12 26.5t-12 29.5v72q0 24 42.5 24t42.5 -24zM313 766v-111q0 -32 -18 -83l-9 -24q-3 -9 -15.5 -9t-27 8t-14.5 15q0 4 2 9l15 40q6 18 6 27t-12 26.5t-12 29.5v72
q0 24 42.5 24t42.5 -24z" />
    <glyph glyph-name="quotedblbase" unicode="&#x201e;" horiz-adv-x="371" 
d="M143 94v-111q0 -32 -18 -83l-9 -24q-3 -9 -15.5 -9t-27 8t-14.5 15q0 4 2 9l15 40q6 18 6 27t-12 26.5t-12 29.5v72q0 24 42.5 24t42.5 -24zM313 94v-111q0 -32 -18 -83l-9 -24q-3 -9 -15.5 -9t-27 8t-14.5 15q0 4 2 9l15 40q6 18 6 27t-12 26.5t-12 29.5v72
q0 24 42.5 24t42.5 -24z" />
    <glyph glyph-name="dagger" unicode="&#x2020;" horiz-adv-x="500" 
d="M60 600h150v152q0 23 40 23t40 -23v-152h150q20 0 20 -35t-20 -35h-150v-612q0 -23 -40 -23t-40 23v612h-150q-20 0 -20 35t20 35z" />
    <glyph glyph-name="daggerdbl" unicode="&#x2021;" horiz-adv-x="500" 
d="M60 600h150v152q0 23 40 23t40 -23v-152h150q20 0 20 -35t-20 -35h-150v-390h150q20 0 20 -35t-20 -35h-150v-152q0 -23 -40 -23t-40 23v152h-150q-20 0 -20 35t20 35h150v390h-150q-20 0 -20 35t20 35z" />
    <glyph glyph-name="bullet" unicode="&#x2022;" horiz-adv-x="311" 
d="M219 416v-128q0 -36 -63.5 -36t-63.5 36v128q0 36 63.5 36t63.5 -36z" />
    <glyph glyph-name="ellipsis" unicode="&#x2026;" horiz-adv-x="603" 
d="M151 114v-101q0 -28 -50.5 -28t-50.5 28v101q0 28 50.5 28t50.5 -28zM352 114v-101q0 -28 -50.5 -28t-50.5 28v101q0 28 50.5 28t50.5 -28zM553 114v-101q0 -28 -50.5 -28t-50.5 28v101q0 28 50.5 28t50.5 -28z" />
    <glyph glyph-name="perthousand" unicode="&#x2030;" horiz-adv-x="1412" 
d="M942 386v-288q0 -56 -42.5 -82t-112.5 -26q-153 0 -153 108v288q0 56 43.5 81.5t113.5 25.5q151 0 151 -107zM699 393v-302q0 -42 89.5 -42t89.5 42v302q0 42 -89.5 42t-89.5 -42zM378 642v-288q0 -56 -42.5 -82t-112.5 -26q-153 0 -153 108v288q0 56 43.5 81.5
t113.5 25.5q151 0 151 -107zM135 649v-302q0 -42 89.5 -42t89.5 42v302q0 42 -89.5 42t-89.5 -42zM1342 386v-288q0 -56 -42.5 -82t-112.5 -26q-153 0 -153 108v288q0 56 43.5 81.5t113.5 25.5q151 0 151 -107zM1099 393v-302q0 -42 89.5 -42t89.5 42v302q0 42 -89.5 42
t-89.5 -42zM459 8q-5 -23 -32 -23t-27 17l152 730q5 23 32 23t27 -17z" />
    <glyph glyph-name="guilsinglleft" unicode="&#x2039;" horiz-adv-x="370" 
d="M235 610q5 5 14.5 5t30 -16.5t20.5 -25t-5 -13.5l-141 -201l141 -201q5 -5 5 -14t-21 -25t-30 -16t-14 5l-151 201q-14 20 -14 50t14 50z" />
    <glyph glyph-name="guilsinglright" unicode="&#x203a;" horiz-adv-x="370" 
d="M286 409q14 -20 14 -50t-14 -50l-151 -201q-5 -5 -14 -5t-30 16t-21 25t5 14l141 201l-141 201q-5 5 -5 13.5t20.5 25t30 16.5t14.5 -5z" />
    <glyph glyph-name="fraction" unicode="&#x2044;" horiz-adv-x="1011" 
d="M459 8q-5 -23 -32 -23t-27 17l152 730q5 23 32 23t27 -17z" />
    <glyph glyph-name="Euro" unicode="&#x20ac;" 
d="M66 490h63v84q0 86 36 126t122 40h202q20 0 20 -35t-20 -35h-202q-43 0 -60.5 -22.5t-17.5 -73.5v-84h190q18 0 18 -31.5t-18 -31.5h-190v-97h190q18 0 18 -31.5t-18 -31.5h-190v-101q0 -51 17.5 -73.5t60.5 -22.5h222q20 0 20 -35t-20 -35h-222q-86 0 -122 40t-36 126
v101h-63q-18 0 -18 31.5t18 31.5h63v97h-63q-18 0 -18 31.5t18 31.5z" />
    <glyph glyph-name="trademark" unicode="&#x2122;" horiz-adv-x="1051" 
d="M827 299v406q-16 0 -20 -4.5t-10 -24.5l-83 -300q-5 -19 -32 -19t-31 19l-83 300q-5 19 -9.5 24t-20.5 5v-406q0 -22 -32 -22t-32 22v412q0 30 8.5 41.5t36.5 11.5h14q47 0 64 -11.5t28 -56.5l30.5 -121t27.5 -111l57 234q11 44 27 55t64 11h15q28 0 36.5 -12t8.5 -43
v-410q0 -22 -32 -22t-32 22zM119 764h267q19 0 19 -29.5t-19 -29.5h-102v-406q0 -22 -32 -22t-32 22v406h-101q-19 0 -19 29.5t19 29.5z" />
    <glyph glyph-name="Omega" unicode="&#x2126;" horiz-adv-x="856" 
d="M741 568v-237q0 -77 -42 -122t-113 -49v-22q0 -44 15 -56t71 -12h84q20 0 20 -35t-20 -35h-84q-91 0 -126 27t-35 111v25q0 27 1 37q4 25 51 25t72.5 28.5t25.5 77.5v237q0 60 -65.5 88.5t-167.5 28.5t-167.5 -28.5t-65.5 -88.5v-237q0 -49 25.5 -77.5t79.5 -28.5
q40 0 44 -25q1 -10 1 -37v-25q0 -84 -35 -111t-126 -27h-84q-20 0 -20 35t20 35h84q56 0 71 12t15 56v22q-71 4 -113 49t-42 122v237q0 66 45 109.5t112.5 60.5t155.5 17t155.5 -17t112.5 -60.5t45 -109.5z" />
    <glyph glyph-name="partialdiff" unicode="&#x2202;" horiz-adv-x="654" 
d="M532 461q6 -35 6 -58.5t-8 -68.5l-34 -191q-28 -158 -234 -158q-182 0 -182 123q0 16 3 35l43 244q10 58 45 95t76.5 50t98 13t97.5 -25l-22 132q-7 43 -22.5 60.5t-56.5 17.5h-76q-20 0 -20 35t20 35h76q79 0 112 -32t45 -105zM462 415q0 60 -121 60t-134 -78l-46 -264
q-1 -5 -1 -15q0 -63 120.5 -63t133.5 78l46 264q2 12 2 18z" />
    <glyph glyph-name="Delta" unicode="&#x2206;" horiz-adv-x="673" 
d="M337 675q-41 0 -56.5 -17.5t-22.5 -60.5l-97 -527h351l-96 527q-8 43 -23 60.5t-56 17.5zM527 0h-380q-35 0 -51 10.5t-16 31.5t3 36l97 530q14 74 46 105.5t111 31.5t111 -31.5t46 -105.5l97 -530q2 -10 2 -34t-15.5 -34t-50.5 -10z" />
    <glyph glyph-name="product" unicode="&#x220f;" 
d="M80 592v88q0 38 19.5 49t65.5 11h359q20 0 20 -35t-20 -35h-364v-86q0 -34 12 -55.5t42 -36.5l249 -121q23 -11 23 -44t-23 -44l-249 -121q-30 -15 -42 -36.5t-12 -55.5v-120h364q20 0 20 -35t-20 -35h-359q-46 0 -65.5 11t-19.5 49v122q0 70 18 103t78 61l211 101
l-211 101q-60 28 -78 61t-18 103z" />
    <glyph glyph-name="summation" unicode="&#x2211;" horiz-adv-x="704" 
d="M514 -102v772h-324v-772q0 -23 -40 -23t-40 23v770q0 41 11 56.5t49 15.5h364q39 0 49.5 -15.5t10.5 -59.5v-767q0 -23 -40 -23t-40 23z" />
    <glyph glyph-name="minus" unicode="&#x2212;" 
d="M95 406h410q20 0 20 -35t-20 -35h-410q-20 0 -20 35t20 35z" />
    <glyph glyph-name="radical" unicode="&#x221a;" horiz-adv-x="636" 
d="M726 789h-138l-150 -815q-14 -73 -44.5 -105t-102.5 -32t-102.5 32t-44.5 105l-78 417q0 18 38 18t42 -23l76 -401q8 -43 21.5 -60.5t47.5 -17.5t48 18t21 60l147 796q9 51 27 64.5t63 13.5h129q20 0 20 -35t-20 -35z" />
    <glyph glyph-name="infinity" unicode="&#x221e;" horiz-adv-x="810" 
d="M572 568h30q85 0 121.5 -47.5t36.5 -147.5t-36.5 -147.5t-121.5 -47.5h-30q-105 0 -145 77l-22 40l-22 -42q-40 -75 -145 -75h-30q-85 0 -121.5 47.5t-36.5 147.5t36.5 147.5t121.5 47.5h30q105 0 145 -75l22 -43l22 41q41 77 145 77zM233 498h-30q-42 0 -60 -31t-18 -94
t18 -94t60 -31h30q65 0 95 56l36 69l-36 69q-30 56 -95 56zM577 248h30q42 0 60 31t18 94t-18 94t-60 31h-30q-65 0 -95 -58l-36 -67l36 -67q31 -58 95 -58z" />
    <glyph glyph-name="integral" unicode="&#x222b;" horiz-adv-x="505" 
d="M122 -120h-52q-20 0 -20 35t20 35h52q42 0 59 22.5t19 73.5l25 528q4 86 38.5 126t119.5 40h52q20 0 20 -35t-20 -35h-52q-42 0 -59 -22.5t-19 -73.5l-25 -528q-4 -86 -38.5 -126t-119.5 -40z" />
    <glyph glyph-name="approxequal" unicode="&#x2248;" 
d="M298.5 515q84.5 30 129.5 30t79 -22q14 -9 15 -40t-10 -31q-2 0 -27 11t-63 11t-122.5 -30t-129.5 -30t-79 22q-14 9 -15 40t10 31q2 0 27 -11t63 -11t122.5 30zM298.5 295q84.5 30 129.5 30t79 -22q14 -9 15 -40t-10 -31q-2 0 -27 11t-63 11t-122.5 -30t-129.5 -30
t-79 22q-14 9 -15 40t10 31q2 0 27 -11t63 -11t122.5 30z" />
    <glyph glyph-name="notequal" unicode="&#x2260;" 
d="M505 516q20 0 20 -35t-20 -35h-160l-31 -150h191q20 0 20 -35t-20 -35h-206l-45 -218q-5 -23 -32 -23t-27 17l46 224h-146q-20 0 -20 35t20 35h161l31 150h-192q-20 0 -20 35t20 35h207l45 216q5 23 32 23t27 -17l-46 -222h145z" />
    <glyph glyph-name="lessequal" unicode="&#x2264;" 
d="M80 370q0 36 8 58.5t28.5 37.5t40.5 22.5t60 18.5l283 77q20 0 20 -38t-23 -42l-269 -75q-52 -14 -65 -24t-13 -35t13 -35t65 -24l269 -75q23 -4 23 -42t-20 -38l-283 77q-40 11 -60 18.5t-40.5 22.5t-28.5 37.5t-8 58.5zM95 70h410q20 0 20 -35t-20 -35h-410
q-20 0 -20 35t20 35z" />
    <glyph glyph-name="greaterequal" unicode="&#x2265;" 
d="M520 370q0 -36 -8 -58.5t-28.5 -37.5t-40.5 -22.5t-60 -18.5l-283 -77q-20 0 -20 38t23 42l269 75q52 14 65 24t13 35t-13 35t-65 24l-269 75q-23 4 -23 42t20 38l283 -77q40 -11 60 -18.5t40.5 -22.5t28.5 -37.5t8 -58.5zM95 70h410q20 0 20 -35t-20 -35h-410
q-20 0 -20 35t20 35z" />
    <glyph glyph-name="lozenge" unicode="&#x25ca;" horiz-adv-x="623" 
d="M312 755q24 0 42.5 -3.5t31.5 -7.5t25 -16t18 -18.5t15 -27t12 -29l13 -35.5l82 -233q2 -8 2 -15.5t-2 -15.5l-82 -232l-13 -35.5t-12 -29t-15 -27t-18 -18.5t-25 -16t-31.5 -7.5t-42.5 -3.5t-42.5 3.5t-31.5 7.5t-25 16t-18 18.5t-15 27t-12 29l-13 35.5l-82 232
q-3 15 -3 16t3 16l82 232l13 35.5t12 29t15 27t18 18.5t25 16t31.5 7.5t42.5 3.5zM312 685q-33 0 -48 -17.5t-31 -60.5l-85 -237l85 -237q16 -43 31 -60.5t48 -17.5t48 17.5t31 60.5l85 237l-85 237q-16 43 -31 60.5t-48 17.5z" />
    <glyph glyph-name="apple" unicode="&#xf8ff;" horiz-adv-x="923" 
d="M589 -89l-23 1q-14 0 -31.5 -12t-26.5 -12l-46 10q-8 0 -23.5 -6t-24 -6t-24.5 12.5t-29 12.5l-24 -2q-15 0 -33 17l-18 19q-12 6 -25 7t-22 6.5t-16 23t-12.5 22t-19.5 10t-20 14.5q-5 9 -7 23.5t-6 21t-14 13.5q-22 18 -22 38l3 25q0 9 -12.5 26.5t-12.5 26.5t6 23.5
t6 23t-6 21.5t-6 22t12.5 29.5t12.5 29.5l-1 25q0 15 16.5 29.5t19 19.5t4.5 21t6 22t19.5 12t20.5 11t12 20.5t13.5 21t25.5 9.5t24.5 7t20.5 20t29 18l26 -2q13 0 28.5 11.5t26.5 11.5l44 -12l45 12q13 0 29 -12.5t28 -12.5l28 3q16 0 29 -16.5t19.5 -20t21.5 -6.5
t22.5 -8t12.5 -19t10.5 -19t25.5 -15.5t24.5 -18.5t5 -24t3 -20.5t19.5 -19t17 -30.5l-1 -25q0 -13 12 -31.5t12 -27.5t-5.5 -22t-5.5 -20t5.5 -21.5t5 -22.5t-12.5 -20.5t-12 -26.5l2 -32q0 -16 -16 -29t-18.5 -18t-7 -24t-10 -25.5t-18 -12t-17.5 -10.5t-14 -21.5
t-16 -21.5t-24.5 -9.5t-22.5 -7.5t-18.5 -16.5t-28.5 -13.5zM462 -6l33 -7q6 0 17 7q15 10 27 10l15 -1q12 0 21 10t12.5 12t16.5 5.5t18.5 7.5t12 15.5t10 15t12.5 7.5t13 8.5t7 18.5t5.5 18t13.5 13t11 23l-1 20q0 11 8.5 20.5t9.5 15.5l-8 32l8 28q0 8 -9 22t-9 23l1 17
q0 12 -12 22t-14 14t-2.5 15.5t-3.5 17t-17.5 13t-18.5 11.5t-8 14t-9 14t-16 6t-16 4.5t-14 14.5t-21 12l-20 -2q-9 0 -20 9t-21 9l-33 -9l-32 9q-8 0 -20 -8.5t-22 -8.5l-17 1q-11 0 -21.5 -12.5t-15 -15t-17.5 -5t-18 -6.5t-10 -15t-9 -15t-14.5 -8t-14.5 -9
q-2 -4 -4 -15.5t-4 -15.5t-14 -14.5t-12 -21.5l1 -16q0 -8 -8.5 -23t-8.5 -23l8 -30l-8 -33q0 -8 8.5 -20.5t8.5 -20.5l-2 -16q0 -11 12.5 -22.5t14.5 -15.5t3.5 -14.5t5.5 -17t14 -10.5t14 -7.5t9.5 -16.5t11.5 -17t15.5 -4t15.5 -3t17.5 -15.5t22.5 -12.5l15 1
q10 0 22 -8.5t18 -9.5zM462 417q70 0 120 -49.5t50 -120.5t-50 -120.5t-120 -49.5t-120 49.5t-50 120.5t50 120.5t120 49.5zM505 292h52v68h-191v-68h54v-175h85v175z" />
    </font>
</defs>
</svg>
